<?xml version="1.0" encoding="iso-8859-1"?>
<!-- Generator: Adobe Illustrator 19.0.0, SVG Export Plug-In . SVG Version: 6.00 Build 0)  -->
<svg version="1.1" id="Layer_1" xmlns="http://www.w3.org/2000/svg" xmlns:xlink="http://www.w3.org/1999/xlink" x="0px" y="0px"
	 viewBox="0 0 243.07 243.07" style="enable-background:new 0 0 243.07 243.07;" xml:space="preserve">
<g>
	<g>
		<path d="M65.252,203.891c-0.323-0.186-1.283-0.83-2.603-1.721c-0.676-0.455-1.28-0.863-1.51-1.01l1.224-1.925
			c0.238,0.151,0.863,0.573,1.561,1.044c0.924,0.623,2.19,1.475,2.47,1.639L65.252,203.891z"/>
	</g>
	<g>
		<path d="M138.801,237.697l-0.327-2.257c57.151-8.274,100.248-58.131,100.248-115.972c0-64.618-52.569-117.188-117.187-117.188
			S4.347,54.85,4.347,119.468c0,51.457,32.951,96.391,81.995,111.812l-0.684,2.176c-23.725-7.46-45.021-22.607-59.964-42.65
			c-15.457-20.734-23.628-45.401-23.628-71.337C2.067,53.593,55.66,0,121.535,0s119.468,53.593,119.468,119.468
			c0,28.893-10.45,56.778-29.426,78.52C192.785,219.522,166.939,233.624,138.801,237.697z"/>
	</g>
	<g>
		<path d="M151.178,216.692l-0.666-2.181c41.436-12.659,70.376-51.742,70.376-95.043c0-54.783-44.569-99.352-99.353-99.352
			c-54.783,0-99.352,44.569-99.352,99.352c0,31.462,15.199,61.412,40.657,80.116l-1.351,1.838
			c-26.041-19.132-41.587-49.77-41.587-81.954c0-56.041,45.592-101.633,101.633-101.633S223.17,63.427,223.17,119.468
			c0,22.184-7.049,43.274-20.386,60.995C189.887,197.6,171.559,210.466,151.178,216.692z"/>
	</g>
	<g>
		<path d="M114.508,218.997C114.507,218.997,114.507,218.997,114.508,218.997c-0.204,0-0.408-0.005-0.611-0.013
			c-4.413-0.167-8.437-3.07-8.606-3.194l-1.363-0.995l1.433-0.894c0.147-0.092,3.803-2.355,9.512-2.132
			c5.94,0.223,8.256,3.834,8.352,3.986l0.726,1.165l-1.278,0.501C122.507,217.485,118.601,218.997,114.508,218.997z M108.395,215.01
			c1.405,0.742,3.48,1.615,5.589,1.695c2.307,0.09,4.672-0.437,6.198-0.871c-0.995-0.776-2.717-1.686-5.396-1.787
			C112.045,213.951,109.826,214.496,108.395,215.01z"/>
	</g>
	<g style="opacity:0.2;">
		<circle cx="122.141" cy="117.289" r="74.786"/>
	</g>
	<g>
		<path style="fill:#FFDE7D;" d="M121.325,231.719c-1.028,0-7.201-2.62-8.223-2.648c0,0,7.245-3.054,8.223-3.054
			c58.883,0,106.787-47.904,106.787-106.787S180.209,12.442,121.325,12.442S14.538,60.347,14.538,119.23
			c0,42.499,25.176,80.939,64.139,97.932l6.778,5.368l-9.058-0.14c-41.042-17.9-67.562-58.393-67.562-103.16
			c0-62.027,50.463-112.49,112.49-112.49s112.489,50.463,112.489,112.49C233.816,181.257,183.354,231.719,121.325,231.719z"/>
	</g>
	<g>
		<path d="M122.256,173.955c-4.926,0-8.934-4.009-8.934-8.935s4.008-8.934,8.934-8.934s8.933,4.008,8.933,8.934
			C131.189,169.946,127.182,173.955,122.256,173.955z M122.256,158.368c-3.669,0-6.653,2.983-6.653,6.652
			c0,3.669,2.984,6.653,6.653,6.653s6.652-2.984,6.652-6.653C128.909,161.351,125.924,158.368,122.256,158.368z"/>
	</g>
	<g>
		<path d="M161.398,136.349c-4.926,0-8.934-4.009-8.934-8.935c0-4.926,4.008-8.934,8.934-8.934s8.934,4.008,8.934,8.934
			C170.331,132.34,166.323,136.349,161.398,136.349z M161.398,120.762c-3.669,0-6.652,2.983-6.652,6.652
			c0,3.669,2.983,6.653,6.652,6.653c3.669,0,6.652-2.984,6.652-6.653C168.049,123.746,165.066,120.762,161.398,120.762z"/>
	</g>
	<g>
		<path d="M83.115,134.874c-4.926,0-8.934-4.009-8.934-8.935s4.007-8.934,8.934-8.934c4.926,0,8.933,4.008,8.933,8.934
			S88.041,134.874,83.115,134.874z M83.115,119.288c-3.669,0-6.652,2.983-6.652,6.652c0,3.669,2.984,6.653,6.652,6.653
			s6.652-2.984,6.652-6.653C89.767,122.271,86.783,119.288,83.115,119.288z"/>
	</g>
	<g>
		
			<rect x="81.356" y="145.547" transform="matrix(-0.7071 -0.7071 0.7071 -0.7071 69.2627 322.0641)" width="39.955" height="2.28"/>
	</g>
	<g>
		
			<rect x="142.05" y="127.88" transform="matrix(-0.7073 -0.7069 0.7069 -0.7073 139.9479 353.6609)" width="2.281" height="39.956"/>
	</g>
	<g>
		<rect x="121.115" y="57.196" width="2.281" height="100.031"/>
	</g>
	<g>
		<polygon points="109.05,73.945 107.29,72.495 122.252,54.323 136.991,72.064 135.234,73.521 122.259,57.903 		"/>
	</g>
	<g>
		<rect x="115.336" y="83.58" width="13.61" height="2.281"/>
	</g>
	<g>
		<rect x="106.763" y="93.463" width="30.754" height="2.281"/>
	</g>
	<g>
		<path d="M130.219,243.07c-2.326,0-4.823-0.261-7.162-0.859c-5.39-1.374-9.628-1.831-12.261-1.321
			c-5.572,1.079-11.391-0.613-13.942-2.013l-0.71-0.398c-2.311-1.306-7.12-4.02-16.071-6.936l0.706-2.17
			c9.168,2.988,14.11,5.778,16.486,7.12l0.688,0.386c2.173,1.192,7.465,2.729,12.41,1.773c3.737-0.726,9.274,0.333,13.259,1.352
			c6.103,1.558,12.519,0.522,13.837-0.543c0.667-0.538,1.113-1.169,1.409-1.731c-6.391,0.389-14.958-2.878-16.432-3.576
			c-1.882-0.89-10.331-3.743-10.416-3.772l-3.292-1.11l3.31-1.057c0,0,1.748-0.557,3.803-1.169l0.649,2.188
			c-0.142,0.043-0.283,0.084-0.422,0.126c2.662,0.925,6.142,2.165,7.344,2.733c2.071,0.983,11.561,4.27,16.898,3.159l1.579-0.327
			l-0.217,1.599c-0.016,0.113-0.405,2.799-2.783,4.714C137.521,242.339,134.111,243.07,130.219,243.07z"/>
	</g>
	<g>
		<path d="M116.49,229.229l-0.65-2.185c1.704-0.509,4.026-1.171,5.414-1.448c7.527-1.496,8.656-2.195,12.854-4.798
			c1.239-0.768,2.782-1.725,4.813-2.902c2.443-1.419,8.038-2.672,10.514-3.179c-0.065-0.094-0.145-0.194-0.245-0.3
			c-0.957-1.019-3.877-2.728-12.68-2.728c-8.093,0-13.44-1.201-17.737-2.167c-2.925-0.657-5.236-1.181-7.551-1.127
			c-3.503,0.074-6.303,0.645-9.847,1.365c-3.304,0.673-7.05,1.435-12.351,1.989c-8.698,0.923-18.039-4.523-23.055-7.442
			l-0.715-0.417l1.142-1.973l0.721,0.418c4.449,2.59,13.702,7.98,21.669,7.146c5.191-0.545,8.88-1.296,12.134-1.957
			c3.511-0.714,6.544-1.331,10.252-1.411c2.609-0.046,5.146,0.518,8.1,1.182c4.187,0.941,9.397,2.112,17.237,2.112
			c7.604,0,12.494,1.232,14.534,3.662c1.129,1.348,0.95,2.591,0.926,2.729l-0.138,0.78l-0.778,0.143
			c-2.274,0.421-8.683,1.807-10.988,3.145c-2.001,1.162-3.528,2.108-4.754,2.869c-4.361,2.704-5.678,3.52-13.611,5.096
			C120.669,228.038,118.867,228.522,116.49,229.229z"/>
	</g>
</g>
<g>
</g>
<g>
</g>
<g>
</g>
<g>
</g>
<g>
</g>
<g>
</g>
<g>
</g>
<g>
</g>
<g>
</g>
<g>
</g>
<g>
</g>
<g>
</g>
<g>
</g>
<g>
</g>
<g>
</g>
</svg>
