<?xml version="1.0" encoding="iso-8859-1"?>
<!-- Generator: Adobe Illustrator 19.0.0, SVG Export Plug-In . SVG Version: 6.00 Build 0)  -->
<svg version="1.1" id="Layer_1" xmlns="http://www.w3.org/2000/svg" xmlns:xlink="http://www.w3.org/1999/xlink" x="0px" y="0px"
	 viewBox="0 0 244.409 244.409" style="enable-background:new 0 0 244.409 244.409;" xml:space="preserve">
<g>
	<g>
		<path d="M172.926,168.931H70.199l28.392-49.154h45.954L172.926,168.931z M74.15,166.651h94.825l-25.746-44.593H99.908
			L74.15,166.651z"/>
	</g>
	<g>
		<polygon style="fill:#FFDE7D;" points="82.054,162.088 102.541,126.62 140.596,126.62 161.074,162.088 		"/>
	</g>
	<g>
		<path d="M145.861,122.058H97.274l10.323-17.879V39.853h-0.753c-2.729,0-4.949-2.221-4.949-4.949c0-2.729,2.22-4.95,4.949-4.95
			h29.436c2.735,0,4.961,2.221,4.961,4.95s-2.226,4.949-4.961,4.949h-0.741v64.327L145.861,122.058z M101.225,119.777h40.687
			l-8.654-14.987V37.572h3.022c1.478,0,2.68-1.197,2.68-2.668s-1.202-2.669-2.68-2.669h-29.436c-1.471,0-2.668,1.197-2.668,2.669
			c0,1.471,1.197,2.668,2.668,2.668h3.034v67.218L101.225,119.777z"/>
	</g>
	<g style="opacity:0.2;">
		<path d="M146.186,125.202l-2.372-4.106l-9.488-16.433V38.891h1.882c2.11,0,3.82-1.699,3.82-3.809c0-2.099-1.71-3.809-3.82-3.809
			h-29.435c-2.109,0-3.809,1.71-3.809,3.809c0,2.11,1.7,3.809,3.809,3.809h1.893v65.772l-9.488,16.433l-2.372,4.106l-24.705,42.767
			h98.776L146.186,125.202z"/>
	</g>
	<g>
		<polygon points="99.249,122.058 99.238,122.058 99.238,119.777 		"/>
	</g>
	<g>
		<path d="M115.006,24.621c-2.122,0-3.849-1.726-3.849-3.849c0-2.122,1.727-3.849,3.849-3.849s3.849,1.727,3.849,3.849
			C118.854,22.895,117.128,24.621,115.006,24.621z M115.006,19.204c-0.865,0-1.568,0.704-1.568,1.568s0.704,1.568,1.568,1.568
			c0.865,0,1.568-0.704,1.568-1.568S115.871,19.204,115.006,19.204z"/>
	</g>
	<g>
		<path d="M126.951,17.334c-4.779,0-8.667-3.888-8.667-8.667S122.173,0,126.951,0c4.78,0,8.668,3.888,8.668,8.667
			S131.732,17.334,126.951,17.334z M126.951,2.281c-3.521,0-6.386,2.865-6.386,6.386c0,3.522,2.865,6.386,6.386,6.386
			c3.522,0,6.387-2.865,6.387-6.386S130.474,2.281,126.951,2.281z"/>
	</g>
	<g>
		<circle style="fill:#64426E;" cx="121.734" cy="54.426" r="4.019"/>
		<path d="M121.733,59.584c-2.845,0-5.159-2.314-5.159-5.158c0-2.845,2.314-5.159,5.159-5.159s5.159,2.315,5.159,5.159
			C126.893,57.27,124.578,59.584,121.733,59.584z M121.733,51.548c-1.587,0-2.878,1.291-2.878,2.878c0,1.587,1.29,2.878,2.878,2.878
			c1.587,0,2.878-1.291,2.878-2.878C124.612,52.839,123.32,51.548,121.733,51.548z"/>
	</g>
	<g>
		<circle style="fill:#64426E;" cx="119.96" cy="84.016" r="2.245"/>
		<path d="M119.96,87.402c-1.867,0-3.386-1.52-3.386-3.386c0-1.867,1.519-3.386,3.386-3.386c1.867,0,3.386,1.519,3.386,3.386
			C123.346,85.882,121.828,87.402,119.96,87.402z M119.96,82.911c-0.609,0-1.105,0.496-1.105,1.105c0,0.608,0.496,1.104,1.105,1.104
			s1.105-0.496,1.105-1.104C121.065,83.407,120.569,82.911,119.96,82.911z"/>
	</g>
	<g>
		<circle style="fill:#64426E;" cx="125.752" cy="108.878" r="4.584"/>
		<path d="M125.751,114.603c-3.156,0-5.725-2.568-5.725-5.725c0-3.156,2.568-5.725,5.725-5.725s5.726,2.568,5.726,5.725
			C131.477,112.035,128.909,114.603,125.751,114.603z M125.751,105.435c-1.899,0-3.443,1.545-3.443,3.443
			c0,1.899,1.544,3.444,3.443,3.444s3.444-1.545,3.444-3.444C129.196,106.98,127.65,105.435,125.751,105.435z"/>
	</g>
	<g>
		<path d="M184.437,176.387H59.973c-2.683,0-4.866-2.184-4.866-4.866c0-2.684,2.183-4.866,4.866-4.866h124.462
			c2.683,0,4.866,2.183,4.866,4.866C189.303,174.204,187.12,176.387,184.437,176.387z M59.973,168.936
			c-1.425,0-2.585,1.159-2.585,2.585c0,1.426,1.16,2.585,2.585,2.585h124.462c1.426,0,2.585-1.159,2.585-2.585
			c0-1.426-1.159-2.585-2.585-2.585H59.973z"/>
	</g>
	<g>
		<path d="M79.512,244.409H71.04v-69.468h8.472V244.409z M73.321,242.127h3.91v-64.905h-3.91V242.127z"/>
	</g>
	<g>
		<path d="M174.842,244.409h-8.655v-69.468h8.655V244.409z M168.467,242.127h4.094v-64.905h-4.094V242.127z"/>
	</g>
	<g>
		<path d="M140.318,244.409h-36.21v-35.265h36.21V244.409z M106.391,242.127h31.648v-30.702h-31.648V242.127z"/>
	</g>
	<g style="opacity:0.1;">
		<rect x="105.231" y="210.285" width="33.929" height="32.983"/>
	</g>
	<g>
		<path d="M122.076,210.889l-0.802-0.682c-0.29-0.248-7.131-6.17-7.483-14.974c-0.226-5.645,2.27-11.116,7.416-16.264l0.701-0.7
			l0.792,0.596c0.298,0.224,7.309,5.595,7.91,14.158c0.407,5.784-2.215,11.546-7.79,17.121L122.076,210.889z M122.09,181.336
			c-4.185,4.45-6.209,9.09-6.02,13.806c0.246,6.155,4.21,10.848,5.914,12.591c4.554-4.828,6.69-9.72,6.351-14.55
			C127.916,187.222,123.818,182.906,122.09,181.336z"/>
	</g>
	<g>
		<path style="fill:#FFDE7D;" d="M122.088,202.497c0,0-8.575-7.302,0-15.877C122.088,186.62,131.146,193.437,122.088,202.497z"/>
	</g>
	<g>
		<path d="M124.596,234.237c-4.491,0-4.641-5.058-4.762-9.131c-0.14-4.711-0.462-6.684-2.307-6.647
			c-2.167,0.031-2.523,1.491-2.821,4.813c-0.231,2.581-0.548,6.116-4.229,6.116c-1.901,0-3.432-0.596-4.55-1.77
			c-1.949-2.047-1.822-5.096-1.816-5.224l2.278,0.111l-1.139-0.056l1.139,0.052c-0.001,0.021-0.076,2.224,1.199,3.553
			c0.679,0.708,1.624,1.052,2.889,1.052c1.386,0,1.676-0.909,1.957-4.038c0.258-2.881,0.611-6.826,5.059-6.891
			c0.028,0,0.056,0,0.083,0c4.275,0,4.42,4.91,4.538,8.861c0.146,4.922,0.539,7.004,2.588,6.915
			c2.213-0.061,2.464-1.267,2.576-4.443c0.09-2.544,0.226-6.392,4.678-6.392c3.916,0,4.161,2.883,4.307,4.604
			c0.076,0.896,0.148,1.741,0.552,2.061c0.351,0.278,1.13,0.344,2.198,0.191l0.331,2.256c-1.768,0.265-3.059,0.045-3.945-0.659
			c-1.177-0.932-1.3-2.379-1.408-3.654c-0.163-1.912-0.297-2.517-2.035-2.517c-1.97,0-2.282,0.893-2.398,4.191
			c-0.092,2.596-0.23,6.518-4.793,6.643C124.707,234.236,124.651,234.237,124.596,234.237z"/>
	</g>
	<g>
		<polygon style="fill:#FFDE7D;" points="91.933,156.386 105.832,132.322 137.303,132.322 151.197,156.386 		"/>
	</g>
</g>
<g>
</g>
<g>
</g>
<g>
</g>
<g>
</g>
<g>
</g>
<g>
</g>
<g>
</g>
<g>
</g>
<g>
</g>
<g>
</g>
<g>
</g>
<g>
</g>
<g>
</g>
<g>
</g>
<g>
</g>
</svg>
