<?xml version="1.0" encoding="iso-8859-1"?>
<!-- Generator: Adobe Illustrator 19.0.0, SVG Export Plug-In . SVG Version: 6.00 Build 0)  -->
<svg version="1.1" id="Layer_1" xmlns="http://www.w3.org/2000/svg" xmlns:xlink="http://www.w3.org/1999/xlink" x="0px" y="0px"
	 viewBox="0 0 177.549 177.549" style="enable-background:new 0 0 177.549 177.549;" xml:space="preserve">
<g>
	<g>
		<path d="M88.776,177.549c-8.343,0-15.196-6.499-15.765-14.699c-8.201-0.568-14.7-7.422-14.7-15.764
			c0-8.713,7.089-15.802,15.802-15.802c0.957,0,1.865,0.004,2.742,0.008l2.386,0.007c0.849,0,1.684-0.004,2.522-0.018L81.665,0
			h26.756v9.473H95.885v5.479h8.059v9.472h-8.059v5.424h12.536v9.473H95.884l-0.047,92.004c1.506-0.035,2.995-0.044,4.683-0.044
			l2.918,0.003c8.712,0,15.8,7.088,15.8,15.802c0,8.342-6.498,15.196-14.697,15.764C103.972,171.05,97.118,177.549,88.776,177.549z
			 M74.114,133.564c-7.456,0-13.521,6.065-13.521,13.521s6.065,13.521,13.521,13.521h1.141v1.141
			c0,7.456,6.065,13.521,13.521,13.521s13.522-6.065,13.522-13.521v-1.141h1.141c7.454,0,13.52-6.065,13.52-13.521
			s-6.065-13.521-13.52-13.521l-2.918-0.002c-2.104,0-3.892,0.013-5.786,0.076l-1.18,0.039l0.052-96.638h12.535v-4.911H93.604
			v-9.985h8.06v-4.91h-8.06V7.191h12.537v-4.91H83.947V38.18l0.1,95.329l-1.112,0.029c-1.238,0.032-2.45,0.041-3.693,0.041
			l-2.396-0.007C75.971,133.568,75.067,133.564,74.114,133.564z"/>
	</g>
	<g style="opacity:0.1;">
		<path d="M88.776,175.062c-7.342,0-13.315-5.973-13.315-13.315V160.4h-1.347c-7.341,0-13.314-5.973-13.314-13.315
			s5.974-13.315,13.314-13.315l5.129,0.016c1.245,0,2.458-0.009,3.698-0.043l1.313-0.034l-0.1-95.533V2.487h21.78v4.498H93.398
			V17.44h8.06v4.497h-8.06v10.398h12.535v4.498H93.4l-0.053,97.057l1.394-0.045c1.89-0.063,3.671-0.075,5.766-0.075l2.932,0.001
			c7.34,0,13.313,5.973,13.313,13.315s-5.974,13.315-13.313,13.315h-1.347v1.347C102.091,169.089,96.116,175.062,88.776,175.062z"/>
	</g>
	<g>
		<path d="M102.456,162.833c-7.529,0-13.654-6.126-13.654-13.655c0-6.148,5.002-11.15,11.151-11.15c5.045,0,9.149,4.104,9.149,9.15
			h-2.281c0-3.788-3.081-6.869-6.868-6.869c-4.892,0-8.87,3.979-8.87,8.87c0,6.271,5.102,11.374,11.373,11.374
			c7.995,0,14.501-6.505,14.501-14.501h2.28C119.237,155.304,111.71,162.833,102.456,162.833z"/>
	</g>
	<g>
		<path d="M75.095,162.833c-9.254,0-16.784-7.528-16.784-16.782h2.281c0,7.995,6.506,14.501,14.502,14.501
			c6.271,0,11.372-5.103,11.372-11.374c0-4.891-3.979-8.87-8.871-8.87c-3.787,0-6.868,3.081-6.868,6.869h-2.281
			c0-5.046,4.104-9.15,9.149-9.15c6.149,0,11.151,5.002,11.151,11.15C88.748,156.707,82.623,162.833,75.095,162.833z"/>
	</g>
</g>
<g>
</g>
<g>
</g>
<g>
</g>
<g>
</g>
<g>
</g>
<g>
</g>
<g>
</g>
<g>
</g>
<g>
</g>
<g>
</g>
<g>
</g>
<g>
</g>
<g>
</g>
<g>
</g>
<g>
</g>
</svg>
