<?xml version="1.0" encoding="iso-8859-1"?>
<!-- Generator: Adobe Illustrator 19.0.0, SVG Export Plug-In . SVG Version: 6.00 Build 0)  -->
<svg version="1.1" id="Layer_1" xmlns="http://www.w3.org/2000/svg" xmlns:xlink="http://www.w3.org/1999/xlink" x="0px" y="0px"
	 viewBox="0 0 239.144 239.144" style="enable-background:new 0 0 239.144 239.144;" xml:space="preserve">
<g>
	<g>
		<path d="M138.741,139.665h-38.337c-0.552,0-1-0.448-1-1v-10.922l-2.379-2.596l-3.735,2.988c-0.177,0.142-0.397,0.219-0.625,0.219
			H87.01c-0.372,0-0.712-0.206-0.885-0.535l-7.354-13.99c-0.208-0.395-0.128-0.879,0.193-1.188l4.665-4.467v-9.316l-4.724-5.373
			c-0.161-0.182-0.249-0.417-0.249-0.66V62.309c0-21.643,17.608-39.25,39.25-39.25h3.334c21.643,0,39.25,17.607,39.25,39.25v30.517
			c0,0.243-0.088,0.478-0.249,0.66l-4.724,5.373v9.316l4.665,4.467c0.322,0.309,0.401,0.793,0.193,1.188l-7.354,13.99
			c-0.173,0.329-0.514,0.535-0.885,0.535h-5.655c-0.227,0-0.447-0.077-0.625-0.219l-3.735-2.988l-2.379,2.596v10.922
			C139.741,139.217,139.293,139.665,138.741,139.665z M101.404,137.665h36.337v-10.312c0-0.25,0.094-0.491,0.263-0.676l3.274-3.572
			c0.357-0.387,0.952-0.434,1.362-0.105l4.191,3.353h4.701l6.723-12.789l-4.429-4.242c-0.197-0.188-0.308-0.45-0.308-0.722V98.48
			c0-0.243,0.088-0.478,0.249-0.66l4.724-5.373v-30.14c0-20.54-16.71-37.25-37.25-37.25h-3.334c-20.54,0-37.25,16.71-37.25,37.25
			v30.14l4.724,5.373c0.161,0.182,0.249,0.417,0.249,0.66v10.12c0,0.273-0.111,0.534-0.308,0.722l-4.429,4.242l6.723,12.789h4.701
			L96.508,123c0.41-0.329,1.006-0.283,1.362,0.105l3.274,3.572c0.169,0.185,0.263,0.426,0.263,0.676v10.312H101.404z"/>
		<g>
			<polygon points="118.767,108.239 118.767,122.527 117.516,125.801 112.219,123.122 112.219,117.021 			"/>
			<polygon points="120.377,108.239 120.377,122.527 121.628,125.801 126.925,123.122 126.925,117.021 			"/>
		</g>
		<g>
			<polygon points="95.734,93.169 90.777,102.937 93.256,110.222 104.407,112.149 112.413,102.659 112.413,94.659 			"/>
			<polygon points="143.411,93.169 148.367,102.937 145.888,110.222 134.737,112.149 126.731,102.659 126.731,94.659 			"/>
		</g>
		<g>
			<path d="M105.057,145.019c-0.552,0-1-0.448-1-1v-11.312c0-0.552,0.448-1,1-1s1,0.448,1,1v11.312
				C106.057,144.571,105.61,145.019,105.057,145.019z"/>
			<path d="M112.315,145.019c-0.552,0-1-0.448-1-1v-11.312c0-0.552,0.448-1,1-1s1,0.448,1,1v11.312
				C113.315,144.571,112.867,145.019,112.315,145.019z"/>
			<path d="M119.572,145.019c-0.552,0-1-0.448-1-1v-11.312c0-0.552,0.448-1,1-1s1,0.448,1,1v11.312
				C120.572,144.571,120.124,145.019,119.572,145.019z"/>
			<path d="M126.829,145.019c-0.552,0-1-0.448-1-1v-11.312c0-0.552,0.448-1,1-1s1,0.448,1,1v11.312
				C127.829,144.571,127.382,145.019,126.829,145.019z"/>
			<path d="M134.087,145.019c-0.552,0-1-0.448-1-1v-11.312c0-0.552,0.448-1,1-1s1,0.448,1,1v11.312
				C135.087,144.571,134.639,145.019,134.087,145.019z"/>
		</g>
		<path d="M138.698,150.986c-0.171,0-0.343-0.044-0.497-0.132c-0.312-0.178-0.503-0.509-0.503-0.868v-10.321h-36.252v10.321
			c0,0.359-0.192,0.69-0.503,0.868c-0.312,0.177-0.695,0.176-1.003-0.006l-9.627-5.661c-0.306-0.18-0.493-0.507-0.493-0.862v-15.88
			c0-0.552,0.448-1,1-1s1,0.448,1,1v15.308l7.627,4.485v-9.573c0-0.552,0.448-1,1-1h38.252c0.552,0,1,0.448,1,1v9.573l7.627-4.485
			v-15.308c0-0.552,0.448-1,1-1s1,0.448,1,1v15.88c0,0.354-0.188,0.682-0.493,0.862l-9.627,5.661
			C139.049,150.94,138.873,150.986,138.698,150.986z"/>
		<path d="M138.698,163.143h-38.252c-0.209,0-0.414-0.066-0.584-0.188l-16.897-12.157c-0.261-0.188-0.416-0.49-0.416-0.812V120.69
			c0-0.552,0.448-1,1-1s1,0.448,1,1v28.784l16.22,11.669h37.607l16.22-11.669V120.69c0-0.552,0.448-1,1-1s1,0.448,1,1v29.296
			c0,0.322-0.155,0.624-0.416,0.812l-16.897,12.157C139.112,163.077,138.907,163.143,138.698,163.143z"/>
	</g>
	<polygon points="119.572,0 122.571,6.076 129.276,7.05 124.424,11.779 125.57,18.457 119.572,15.304 113.575,18.457 114.72,11.779 
		109.869,7.05 116.574,6.076 	"/>
	<g>
		<g>
			<g>
				<path style="fill:#F2E5A2;" d="M56.968,223.306c1.03,1.982,3.472,2.755,5.454,1.725l104.118-54.094
					c1.982-1.029-0.835-1.607-1.865-3.589l0,0c-1.03-1.982-0.607-4.242-2.589-3.212L58.692,217.852
					C56.71,218.882,55.938,221.324,56.968,223.306L56.968,223.306z"/>
				<path d="M60.561,226.487c-1.892,0-3.608-1.042-4.48-2.72c-0.622-1.195-0.74-2.562-0.333-3.846
					c0.407-1.284,1.288-2.334,2.484-2.956l103.393-53.716c0.479-0.249,0.902-0.37,1.292-0.37c1.409,0,1.785,1.361,2.059,2.355
					c0.145,0.525,0.31,1.121,0.586,1.654c0.313,0.602,0.891,1.076,1.4,1.495c0.665,0.546,1.352,1.111,1.26,1.987
					c-0.091,0.869-0.942,1.31-1.221,1.456L62.883,225.918C62.166,226.29,61.364,226.487,60.561,226.487z M162.781,164.916
					c-0.058,0.021-0.136,0.055-0.236,0.107L59.153,218.739c-0.721,0.375-1.254,1.009-1.499,1.784
					c-0.245,0.775-0.173,1.6,0.201,2.321c0.526,1.013,1.563,1.642,2.706,1.642c0.49,0,0.961-0.115,1.4-0.343l103.97-54.018
					c-0.081-0.068-0.165-0.137-0.239-0.199c-0.592-0.486-1.403-1.153-1.905-2.118c-0.374-0.719-0.577-1.454-0.739-2.044
					C162.969,165.483,162.869,165.121,162.781,164.916z"/>
			</g>
			<g>
				<g>
					<path style="fill:#F2E5A2;" d="M79.563,234.133c0.699,1.345,0.175,3.002-1.17,3.701l0,0c-1.345,0.699-3.002,0.175-3.701-1.17
						l-6.26-12.049c-0.699-1.345-0.175-3.003,1.17-3.701l0,0c1.345-0.699,3.003-0.175,3.701,1.17L79.563,234.133z"/>
					<path d="M77.13,239.144c-1.405,0-2.679-0.773-3.326-2.019l-6.26-12.049c-0.461-0.888-0.549-1.902-0.248-2.855
						s0.957-1.733,1.845-2.194c0.531-0.276,1.127-0.422,1.724-0.422c1.404,0,2.678,0.774,3.325,2.019l6.26,12.049
						c0.461,0.887,0.549,1.901,0.248,2.855s-0.956,1.733-1.844,2.194C78.322,238.998,77.726,239.144,77.13,239.144z M70.865,221.605
						c-0.281,0-0.551,0.066-0.802,0.197c-0.414,0.215-0.719,0.578-0.86,1.022c-0.14,0.444-0.1,0.917,0.115,1.331l6.26,12.049
						c0.431,0.83,1.512,1.181,2.353,0.744c0.413-0.215,0.718-0.578,0.859-1.022s0.1-0.917-0.115-1.33l-6.26-12.049
						C72.114,221.965,71.52,221.605,70.865,221.605z"/>
				</g>
				<g>
					<path style="fill:#F2E5A2;" d="M88.151,229.672c0.699,1.345,0.175,3.002-1.17,3.701l0,0c-1.345,0.699-3.001,0.175-3.701-1.17
						l-6.26-12.049c-0.699-1.346-0.175-3.003,1.17-3.702l0,0c1.345-0.698,3.002-0.174,3.701,1.17L88.151,229.672z"/>
					<path d="M85.718,234.682c-1.404,0-2.678-0.773-3.325-2.019l-6.26-12.049c-0.952-1.832-0.236-4.098,1.596-5.05
						c0.532-0.276,1.128-0.422,1.724-0.422c1.404,0,2.678,0.773,3.326,2.018l6.26,12.05c0.461,0.887,0.549,1.901,0.248,2.855
						s-0.957,1.733-1.844,2.194C86.91,234.536,86.314,234.682,85.718,234.682z M79.453,217.143c-0.281,0-0.55,0.066-0.802,0.197
						c-0.853,0.443-1.187,1.499-0.743,2.353l6.26,12.049c0.431,0.828,1.512,1.178,2.353,0.744c0.414-0.215,0.719-0.578,0.859-1.022
						s0.1-0.917-0.115-1.33l-6.26-12.05C80.702,217.503,80.108,217.143,79.453,217.143z"/>
				</g>
				<g>
					<path style="fill:#F2E5A2;" d="M96.74,225.209c0.698,1.346,0.175,3.002-1.17,3.702l0,0c-1.345,0.698-3.002,0.175-3.701-1.17
						l-6.26-12.049c-0.699-1.345-0.175-3.002,1.17-3.701l0,0c1.345-0.699,3.002-0.175,3.701,1.17L96.74,225.209z"/>
					<path d="M94.307,230.22c-1.404,0-2.679-0.773-3.326-2.019l-6.26-12.05c-0.461-0.887-0.549-1.901-0.248-2.855
						c0.302-0.954,0.957-1.733,1.844-2.194c0.532-0.276,1.128-0.422,1.724-0.422c1.404,0,2.678,0.773,3.325,2.018l6.26,12.049
						c0.951,1.833,0.235,4.098-1.596,5.05C95.499,230.074,94.903,230.22,94.307,230.22z M88.042,212.681
						c-0.281,0-0.55,0.066-0.802,0.197c-0.414,0.215-0.719,0.578-0.859,1.022c-0.141,0.444-0.1,0.917,0.115,1.33l6.26,12.05
						c0.431,0.829,1.513,1.181,2.354,0.744c0.853-0.443,1.187-1.499,0.743-2.354l-6.26-12.048
						C89.291,213.041,88.697,212.681,88.042,212.681z"/>
				</g>
			</g>
			<g>
				
					<rect x="61.222" y="206.673" transform="matrix(-0.8874 0.461 -0.461 -0.8874 242.774 367.2719)" style="fill:#F2E5A2;" width="30.624" height="13.224"/>
				<path d="M66.001,227.204c-0.102,0-0.203-0.016-0.301-0.046c-0.253-0.08-0.464-0.257-0.586-0.493l-6.096-11.735
					c-0.255-0.49-0.064-1.094,0.426-1.348l27.175-14.119c0.489-0.254,1.094-0.064,1.348,0.426l6.097,11.734
					c0.255,0.49,0.064,1.094-0.426,1.348L66.463,227.09C66.319,227.166,66.16,227.204,66.001,227.204z M61.253,214.895l5.174,9.96
					l25.4-13.197l-5.174-9.959L61.253,214.895z"/>
			</g>
			<g>
				<path style="fill:#F2E5A2;" d="M171.713,141.001c-9.868,5.127-13.711,17.282-8.584,27.149
					c5.126,9.868,17.282,13.711,27.149,8.585c9.868-5.127,13.712-17.282,8.585-27.15
					C193.736,139.718,181.581,135.875,171.713,141.001z M186.708,169.864c-6.072,3.155-13.552,0.79-16.708-5.283
					c-3.155-6.072-0.789-13.553,5.283-16.708c6.072-3.155,13.552-0.79,16.708,5.283
					C195.146,159.229,192.781,166.709,186.708,169.864z"/>
				<path d="M181.014,180.007h-0.001c-7.927,0-15.12-4.367-18.771-11.395c-5.373-10.341-1.331-23.125,9.01-28.498
					c3.002-1.56,6.366-2.384,9.727-2.384c7.927,0,15.12,4.366,18.771,11.395c2.603,5.01,3.099,10.733,1.397,16.115
					s-5.398,9.78-10.408,12.383C187.737,179.183,184.374,180.007,181.014,180.007z M180.979,139.73
					c-3.085,0-6.047,0.726-8.805,2.159c-9.362,4.865-13.022,16.439-8.158,25.801c3.306,6.363,9.818,10.316,16.996,10.317h0.001
					c3.084,0,6.045-0.726,8.803-2.159c9.363-4.865,13.023-16.439,8.159-25.802C194.669,143.683,188.156,139.73,180.979,139.73z
					 M181.006,172.262c-5.022,0-9.579-2.767-11.893-7.22c-3.404-6.552-0.843-14.652,5.709-18.056
					c1.902-0.988,4.033-1.511,6.163-1.511c5.022,0,9.579,2.767,11.893,7.22c1.649,3.174,1.964,6.8,0.885,10.21
					c-1.078,3.41-3.42,6.196-6.594,7.845C185.267,171.739,183.136,172.262,181.006,172.262z M180.985,147.475
					c-1.81,0-3.622,0.444-5.241,1.285c-5.573,2.896-7.752,9.786-4.856,15.359c1.969,3.789,5.846,6.142,10.118,6.142
					c1.836,0,3.6-0.433,5.241-1.285c2.7-1.403,4.692-3.773,5.609-6.674c0.917-2.901,0.65-5.985-0.753-8.686
					C189.135,149.829,185.258,147.475,180.985,147.475z"/>
			</g>
		</g>
		<g>
			<g>
				<path style="fill:#F2E5A2;" d="M182.176,223.306c-1.03,1.982-3.472,2.755-5.454,1.725L72.605,170.937
					c-1.981-1.029,0.835-1.607,1.865-3.589l0,0c1.03-1.982,0.607-4.242,2.589-3.212l103.393,53.716
					C182.434,218.882,183.206,221.324,182.176,223.306L182.176,223.306z"/>
				<path d="M178.584,226.487c-0.803,0-1.605-0.197-2.322-0.569L72.144,171.824c-0.279-0.145-1.13-0.586-1.221-1.455
					c-0.092-0.876,0.595-1.441,1.26-1.987c0.51-0.419,1.087-0.894,1.4-1.495c0.276-0.533,0.441-1.128,0.586-1.654
					c0.274-0.994,0.65-2.355,2.059-2.355c0.39,0,0.813,0.121,1.292,0.37l103.393,53.716c1.196,0.621,2.078,1.671,2.484,2.956
					s0.288,2.651-0.333,3.846C182.192,225.445,180.475,226.487,178.584,226.487z M73.214,170.126l103.97,54.018
					c0.439,0.228,0.91,0.343,1.4,0.343c1.143,0,2.179-0.629,2.706-1.642c0.375-0.722,0.446-1.546,0.201-2.321
					s-0.778-1.409-1.499-1.784L76.599,165.023c-0.1-0.052-0.178-0.085-0.236-0.106c-0.088,0.204-0.188,0.567-0.266,0.849
					c-0.163,0.59-0.365,1.325-0.739,2.044c-0.501,0.965-1.313,1.632-1.904,2.118C73.379,169.989,73.295,170.058,73.214,170.126z"/>
			</g>
			<g>
				<g>
					<path style="fill:#F2E5A2;" d="M159.582,234.133c-0.699,1.345-0.175,3.002,1.17,3.701l0,0c1.345,0.699,3.003,0.175,3.701-1.17
						l6.26-12.049c0.699-1.345,0.175-3.003-1.17-3.701l0,0c-1.345-0.699-3.002-0.175-3.701,1.17L159.582,234.133z"/>
					<path d="M162.015,239.144L162.015,239.144c-0.597,0-1.193-0.146-1.725-0.422c-0.888-0.461-1.542-1.24-1.844-2.194
						c-0.302-0.954-0.214-1.968,0.248-2.856l6.26-12.048c0.646-1.245,1.921-2.019,3.325-2.019c0.597,0,1.193,0.146,1.725,0.423
						c0.887,0.46,1.542,1.24,1.844,2.193s0.214,1.968-0.248,2.855l-6.26,12.049C164.694,238.37,163.42,239.144,162.015,239.144z
						 M168.279,221.605c-0.655,0-1.249,0.361-1.55,0.941l-6.26,12.049c-0.215,0.414-0.256,0.886-0.115,1.331
						s0.446,0.808,0.859,1.022c0.252,0.13,0.522,0.197,0.803,0.197l0,0c0.655,0,1.249-0.36,1.55-0.941l6.261-12.049
						c0.215-0.414,0.255-0.886,0.115-1.331c-0.141-0.444-0.446-0.807-0.859-1.021C168.83,221.671,168.56,221.605,168.279,221.605z"
						/>
				</g>
				<g>
					<path style="fill:#F2E5A2;" d="M150.993,229.672c-0.699,1.345-0.175,3.002,1.17,3.701l0,0c1.345,0.699,3.002,0.175,3.701-1.17
						l6.26-12.049c0.699-1.346,0.175-3.003-1.17-3.702l0,0c-1.345-0.698-3.002-0.174-3.701,1.17L150.993,229.672z"/>
					<path d="M153.426,234.682L153.426,234.682c-0.596,0-1.192-0.146-1.724-0.422c-0.888-0.461-1.543-1.24-1.844-2.194
						c-0.302-0.954-0.214-1.968,0.248-2.855l6.26-12.05c0.647-1.245,1.922-2.019,3.326-2.019c0.596,0,1.191,0.146,1.723,0.421
						c0.888,0.461,1.543,1.241,1.845,2.195c0.301,0.954,0.213,1.968-0.248,2.855l-6.26,12.049
						C156.105,233.909,154.83,234.682,153.426,234.682z M159.692,217.143c-0.655,0-1.25,0.36-1.551,0.941l-6.26,12.049
						c-0.215,0.414-0.256,0.886-0.115,1.33s0.446,0.807,0.859,1.022c0.839,0.435,1.922,0.084,2.353-0.745l6.26-12.048
						c0.215-0.414,0.256-0.887,0.115-1.331c-0.14-0.444-0.446-0.807-0.859-1.022C160.241,217.209,159.972,217.143,159.692,217.143z"
						/>
				</g>
				<g>
					<path style="fill:#F2E5A2;" d="M142.405,225.209c-0.699,1.346-0.175,3.002,1.17,3.702l0,0c1.345,0.698,3.002,0.175,3.701-1.17
						l6.26-12.049c0.699-1.345,0.175-3.002-1.17-3.701l0,0c-1.345-0.699-3.002-0.175-3.701,1.17L142.405,225.209z"/>
					<path d="M144.838,230.22L144.838,230.22c-0.596,0-1.192-0.146-1.724-0.422c-1.833-0.953-2.548-3.218-1.597-5.05l6.26-12.049
						c0.647-1.246,1.921-2.019,3.325-2.019c0.596,0,1.192,0.146,1.725,0.422c0.887,0.461,1.542,1.24,1.844,2.194
						c0.301,0.954,0.213,1.968-0.248,2.855l-6.26,12.049C147.516,229.446,146.242,230.22,144.838,230.22z M151.103,212.681
						c-0.655,0-1.249,0.36-1.551,0.941l-6.26,12.048c-0.443,0.854-0.109,1.91,0.744,2.354c0.838,0.437,1.921,0.085,2.353-0.745
						l6.26-12.049c0.215-0.414,0.256-0.886,0.115-1.331c-0.14-0.444-0.445-0.807-0.859-1.022
						C151.653,212.747,151.384,212.681,151.103,212.681z"/>
				</g>
			</g>
			<g>
				
					<rect x="147.279" y="206.667" transform="matrix(0.8874 0.461 -0.461 0.8874 116.6292 -50.9395)" style="fill:#F2E5A2;" width="30.624" height="13.224"/>
				<path d="M173.143,227.204c-0.159,0-0.317-0.038-0.461-0.113l-27.175-14.119c-0.49-0.254-0.681-0.858-0.426-1.348l6.097-11.734
					c0.254-0.491,0.857-0.682,1.348-0.426l27.175,14.119c0.49,0.254,0.681,0.858,0.426,1.348l-6.097,11.735
					c-0.122,0.235-0.333,0.413-0.586,0.493C173.346,227.188,173.245,227.204,173.143,227.204z M147.317,211.658l25.4,13.197
					l5.174-9.96l-25.4-13.196L147.317,211.658z"/>
			</g>
			<g>
				<path style="fill:#F2E5A2;" d="M40.281,149.585c-5.126,9.868-1.283,22.023,8.585,27.15c9.867,5.126,22.022,1.284,27.149-8.585
					c5.127-9.868,1.284-22.022-8.584-27.149C57.564,135.875,45.408,139.718,40.281,149.585z M47.154,153.156
					c3.155-6.073,10.635-8.438,16.708-5.283s8.438,10.635,5.283,16.708c-3.155,6.073-10.635,8.438-16.708,5.283
					C46.363,166.709,43.998,159.229,47.154,153.156z"/>
				<path d="M58.133,180.007C58.132,180.007,58.133,180.007,58.133,180.007c-3.362,0-6.725-0.824-9.727-2.384
					c-10.341-5.373-14.384-18.157-9.011-28.498c3.652-7.028,10.845-11.395,18.771-11.395c3.361,0,6.725,0.824,9.727,2.384
					c10.341,5.373,14.383,18.157,9.01,28.498C73.252,175.64,66.059,180.007,58.133,180.007z M58.166,139.73
					c-7.178,0-13.69,3.953-16.997,10.316c-4.864,9.363-1.204,20.938,8.159,25.802c2.757,1.433,5.72,2.159,8.805,2.159
					c7.177,0,13.69-3.953,16.996-10.317c4.864-9.362,1.205-20.937-8.158-25.801C64.213,140.456,61.251,139.73,58.166,139.73z
					 M58.138,172.262c-2.13,0-4.261-0.522-6.163-1.511c-3.174-1.649-5.516-4.435-6.594-7.845c-1.079-3.41-0.764-7.037,0.885-10.21
					c2.314-4.454,6.871-7.22,11.893-7.22c2.13,0,4.261,0.522,6.163,1.511c6.552,3.404,9.113,11.504,5.709,18.056
					C67.718,169.495,63.16,172.262,58.138,172.262z M58.159,147.475c-4.273,0-8.15,2.354-10.119,6.142
					c-1.403,2.7-1.67,5.785-0.753,8.686s2.909,5.271,5.609,6.674c1.642,0.853,3.405,1.285,5.241,1.285
					c4.272,0,8.149-2.354,10.118-6.142c2.896-5.574,0.717-12.463-4.856-15.359C61.759,147.908,59.995,147.475,58.159,147.475z"/>
			</g>
		</g>
	</g>
	<g>
		<path d="M44.369,82.574c0-10.993,7.293-20.278,17.304-23.292c-2.224-0.669-4.581-1.034-7.023-1.034
			c-13.435,0-24.327,10.891-24.327,24.326c0,13.436,10.892,24.327,24.327,24.327c2.442,0,4.799-0.364,7.023-1.034
			C51.662,102.853,44.369,93.567,44.369,82.574z"/>
		<path d="M194.775,82.574c0-10.993-7.293-20.278-17.304-23.292c2.224-0.669,4.581-1.034,7.023-1.034
			c13.435,0,24.327,10.891,24.327,24.326c0,13.436-10.892,24.327-24.327,24.327c-2.442,0-4.799-0.364-7.023-1.034
			C187.482,102.853,194.775,93.567,194.775,82.574z"/>
	</g>
</g>
<g>
</g>
<g>
</g>
<g>
</g>
<g>
</g>
<g>
</g>
<g>
</g>
<g>
</g>
<g>
</g>
<g>
</g>
<g>
</g>
<g>
</g>
<g>
</g>
<g>
</g>
<g>
</g>
<g>
</g>
</svg>
