<?xml version="1.0" encoding="iso-8859-1"?>
<!-- Generator: Adobe Illustrator 19.0.0, SVG Export Plug-In . SVG Version: 6.00 Build 0)  -->
<svg version="1.1" id="Layer_1" xmlns="http://www.w3.org/2000/svg" xmlns:xlink="http://www.w3.org/1999/xlink" x="0px" y="0px"
	 viewBox="0 0 208.762 208.762" style="enable-background:new 0 0 208.762 208.762;" xml:space="preserve">
<g>
	<g>
		<path style="fill:none;stroke:#000000;stroke-width:2;stroke-miterlimit:10;" d="M153.862,91.601
			c6.884-69.135-31.964-69.135-52.112-69.135s-58.997,0-52.113,69.135c0.853,8.512-8.369,34.083,15.821,34.083
			S83.991,148.84,85.27,148.84h32.96c1.278,0-4.378-23.156,19.812-23.156C162.23,125.684,153.011,100.113,153.862,91.601z
			 M78.076,105.936c-7.93,0-16.777-6.418-16.777-14.335c0-7.931,8.847-14.35,16.777-14.35c7.917,0,14.336,1.847,14.336,9.778
			C92.412,94.946,85.993,105.936,78.076,105.936z M109.15,121.642c-4.12,4.118-7.4,0-7.4,0s-3.28,4.118-7.388,0
			c-4.12-4.107,7.388-23.558,7.388-23.558S113.257,117.535,109.15,121.642z M124.105,105.936c-7.916,0-14.336-10.99-14.336-18.906
			c0-7.932,6.42-9.778,14.336-9.778c7.93,0,16.777,6.419,16.777,14.35C140.883,99.518,132.035,105.936,124.105,105.936z"/>
	</g>
	<g style="opacity:0.2;">
		<path d="M153.862,91.601c6.884-69.135-31.964-69.135-52.112-69.135s-58.997,0-52.113,69.135
			c0.853,8.512-8.369,34.083,15.821,34.083S83.991,148.84,85.27,148.84h32.96c1.278,0-4.378-23.156,19.812-23.156
			C162.23,125.684,153.011,100.113,153.862,91.601z M78.076,105.936c-7.93,0-16.777-6.418-16.777-14.335
			c0-7.931,8.847-14.35,16.777-14.35c7.917,0,14.336,1.847,14.336,9.778C92.412,94.946,85.993,105.936,78.076,105.936z
			 M109.15,121.642c-4.12,4.118-7.4,0-7.4,0s-3.28,4.118-7.388,0c-4.12-4.107,7.388-23.558,7.388-23.558
			S113.257,117.535,109.15,121.642z M124.105,105.936c-7.916,0-14.336-10.99-14.336-18.906c0-7.932,6.42-9.778,14.336-9.778
			c7.93,0,16.777,6.419,16.777,14.35C140.883,99.518,132.035,105.936,124.105,105.936z"/>
	</g>
	<g>
		<g>
			<path style="fill:#FFDE7D;" d="M207.524,156.464v-7.624H19.868c-10.342,0-18.727,8.385-18.727,18.728
				c0,10.344,8.385,18.727,18.727,18.727h187.657v-7.765"/>
			<path d="M208.665,187.436H19.868C8.913,187.436,0,178.523,0,167.568C0,156.614,8.913,147.7,19.868,147.7h188.797v8.765h-2.281
				v-6.483H19.868c-9.698,0-17.586,7.89-17.586,17.587s7.889,17.587,17.586,17.587h186.516v-6.624h2.281L208.665,187.436
				L208.665,187.436z"/>
		</g>
		<g>
			<path style="fill:#64426E;" d="M208.762,179.838H19.868c-6.765,0-12.269-5.504-12.269-12.27s5.504-12.27,12.269-12.27h188.894"/>
			<path d="M208.762,180.979H19.868c-7.394,0-13.41-6.017-13.41-13.411s6.016-13.41,13.41-13.41h188.894v2.281H19.868
				c-6.136,0-11.128,4.992-11.128,11.129s4.992,11.13,11.128,11.13h188.894V180.979z"/>
		</g>
		<g style="opacity:0.2;">
			<path d="M20.593,179.838c-7.165,0-12.995-5.504-12.995-12.27s5.829-12.27,12.995-12.27h177.891v24.54L20.593,179.838
				L20.593,179.838z"/>
		</g>
		<g>
			<rect x="197.344" y="156.196" width="2.281" height="23.643"/>
		</g>
	</g>
	<g>
		<path d="M19,22.468v1.221c-0.342-0.058-0.708-0.08-1.061-0.08c-0.411,0-0.821,0.034-1.221,0.102v-1.243H19z"/>
		<path d="M17.939,39.438c0.353,0,0.719-0.022,1.061-0.08v39.096c-0.342-0.057-0.708-0.08-1.061-0.08
			c-0.411,0-0.821,0.034-1.221,0.104V39.335C17.118,39.404,17.529,39.438,17.939,39.438z"/>
		<path d="M17.939,94.203c0.353,0,0.719-0.022,1.061-0.079v39.323h-2.281V94.1C17.118,94.169,17.529,94.203,17.939,94.203z"/>
		<g>
			<path style="fill:#64426E;" d="M19,77.302c-0.342-0.046-0.708-0.069-1.061-0.069c-0.411,0-0.821,0.023-1.221,0.08
				c-4.425,0.594-7.835,4.379-7.835,8.976c0,4.584,3.41,8.371,7.835,8.976c0.399,0.057,0.81,0.079,1.221,0.079
				c0.353,0,0.719-0.022,1.061-0.057c4.505-0.536,7.995-4.355,7.995-8.998C26.995,81.647,23.505,77.815,19,77.302z M19,94.123
				c-0.342,0.057-0.708,0.079-1.061,0.079c-0.411,0-0.821-0.033-1.221-0.103c-3.786-0.581-6.694-3.865-6.694-7.812
				c0-3.957,2.908-7.23,6.694-7.812c0.399-0.069,0.81-0.104,1.221-0.104c0.353,0,0.719,0.023,1.061,0.08
				c3.866,0.514,6.854,3.832,6.854,7.835C25.854,90.291,22.866,93.611,19,94.123z"/>
			<path d="M19,76.15c-0.342-0.034-0.696-0.058-1.061-0.058c-0.411,0-0.821,0.023-1.221,0.08c-5.052,0.605-8.976,4.904-8.976,10.116
				s3.924,9.512,8.976,10.116c0.399,0.057,0.81,0.079,1.221,0.079c0.365,0,0.719-0.022,1.061-0.057
				c5.132-0.536,9.135-4.869,9.135-10.139C28.135,81.02,24.132,76.686,19,76.15z M19,94.123c-0.342,0.057-0.708,0.079-1.061,0.079
				c-0.411,0-0.821-0.033-1.221-0.103c-3.786-0.581-6.694-3.865-6.694-7.812c0-3.957,2.908-7.23,6.694-7.812
				c0.399-0.069,0.81-0.104,1.221-0.104c0.353,0,0.719,0.023,1.061,0.08c3.866,0.514,6.854,3.832,6.854,7.835
				C25.854,90.291,22.866,93.611,19,94.123z"/>
		</g>
		<g>
			<path style="fill:#64426E;" d="M19,22.536c-0.342-0.045-0.708-0.067-1.061-0.067c-0.411,0-0.821,0.022-1.221,0.08
				c-4.425,0.593-7.835,4.379-7.835,8.975c0,4.585,3.41,8.372,7.835,8.976c0.399,0.058,0.81,0.08,1.221,0.08
				c0.353,0,0.719-0.022,1.061-0.057c4.505-0.536,7.995-4.357,7.995-8.999C26.995,26.882,23.505,23.049,19,22.536z M19,39.358
				c-0.342,0.058-0.708,0.08-1.061,0.08c-0.411,0-0.821-0.034-1.221-0.103c-3.786-0.581-6.694-3.866-6.694-7.812
				c0-3.957,2.908-7.23,6.694-7.812c0.399-0.068,0.81-0.102,1.221-0.102c0.353,0,0.719,0.022,1.061,0.08
				c3.866,0.513,6.854,3.831,6.854,7.834C25.854,35.527,22.866,38.846,19,39.358z"/>
			<path d="M17.939,21.328c-5.623,0-10.196,4.573-10.196,10.195c0,5.212,3.924,9.513,8.976,10.116c0.399,0.058,0.81,0.08,1.221,0.08
				c0.365,0,0.719-0.022,1.061-0.057c5.132-0.536,9.135-4.871,9.135-10.14C28.135,25.901,23.561,21.328,17.939,21.328z M19,39.358
				c-0.342,0.058-0.708,0.08-1.061,0.08c-0.411,0-0.821-0.034-1.221-0.103c-3.786-0.581-6.694-3.866-6.694-7.812
				c0-3.957,2.908-7.23,6.694-7.812c0.399-0.068,0.81-0.102,1.221-0.102c0.353,0,0.719,0.022,1.061,0.08
				c3.866,0.513,6.854,3.831,6.854,7.834C25.854,35.527,22.866,38.846,19,39.358z"/>
		</g>
		<rect x="8.889" y="119.605" width="18.109" height="2.281"/>
	</g>
	<g>
		<path d="M182.726,78.373c-0.354,0-0.707,0.023-1.05,0.08V22.468h2.281v56.009C183.558,78.408,183.146,78.373,182.726,78.373z"/>
		<path d="M208.762,115.838v2.281h-27.086V94.123c0.343,0.057,0.696,0.079,1.05,0.079c0.421,0,0.832-0.033,1.231-0.103v21.738
			L208.762,115.838L208.762,115.838z"/>
		<g>
			<path style="fill:#64426E;" d="M183.957,77.313c-0.399-0.057-0.811-0.08-1.231-0.08c-0.354,0-0.707,0.023-1.05,0.058
				c-4.504,0.524-8.006,4.345-8.006,8.998c0,4.643,3.502,8.474,8.006,8.998c0.343,0.034,0.696,0.057,1.05,0.057
				c0.421,0,0.832-0.022,1.231-0.079c4.426-0.604,7.823-4.402,7.823-8.976C191.78,81.704,188.383,77.917,183.957,77.313z
				 M183.957,94.1c-0.399,0.069-0.811,0.103-1.231,0.103c-0.354,0-0.707-0.022-1.05-0.079c-3.866-0.513-6.865-3.832-6.865-7.835
				c0-4.015,2.999-7.333,6.865-7.835c0.343-0.057,0.696-0.08,1.05-0.08c0.421,0,0.832,0.034,1.231,0.104
				c3.786,0.581,6.683,3.865,6.683,7.812C190.64,90.223,187.743,93.508,183.957,94.1z"/>
			<path d="M183.957,76.172c-0.399-0.057-0.811-0.08-1.231-0.08c-0.354,0-0.707,0.023-1.05,0.058
				c-5.132,0.525-9.146,4.87-9.146,10.139c0,5.27,4.015,9.614,9.146,10.139c0.343,0.034,0.696,0.057,1.05,0.057
				c0.421,0,0.832-0.022,1.231-0.079c5.041-0.604,8.964-4.916,8.964-10.116C192.921,81.087,188.998,76.778,183.957,76.172z
				 M183.957,94.1c-0.399,0.069-0.811,0.103-1.231,0.103c-0.354,0-0.707-0.022-1.05-0.079c-3.866-0.513-6.865-3.832-6.865-7.835
				c0-4.015,2.999-7.333,6.865-7.835c0.343-0.057,0.696-0.08,1.05-0.08c0.421,0,0.832,0.034,1.231,0.104
				c3.786,0.581,6.683,3.865,6.683,7.812C190.64,90.223,187.743,93.508,183.957,94.1z"/>
		</g>
		<g>
			<rect x="196.429" y="106.972" width="2.28" height="20.341"/>
		</g>
		<g>
			<rect x="171.657" y="21.326" width="21.955" height="2.28"/>
		</g>
	</g>
</g>
<g>
</g>
<g>
</g>
<g>
</g>
<g>
</g>
<g>
</g>
<g>
</g>
<g>
</g>
<g>
</g>
<g>
</g>
<g>
</g>
<g>
</g>
<g>
</g>
<g>
</g>
<g>
</g>
<g>
</g>
</svg>
