<?xml version="1.0" encoding="iso-8859-1"?>
<!-- Generator: Adobe Illustrator 19.0.0, SVG Export Plug-In . SVG Version: 6.00 Build 0)  -->
<svg version="1.1" id="Layer_1" xmlns="http://www.w3.org/2000/svg" xmlns:xlink="http://www.w3.org/1999/xlink" x="0px" y="0px"
	 viewBox="0 0 251.793 251.793" style="enable-background:new 0 0 251.793 251.793;" xml:space="preserve">
<g>
	<path d="M120.759,198.969c-0.024,0-0.048-0.001-0.072-0.002c-0.523-0.038-0.929-0.473-0.929-0.998l0.011-29.23l-8.225,28.049
		c-0.147,0.504-0.651,0.809-1.173,0.696c-0.513-0.111-0.852-0.601-0.777-1.12l4.172-28.933l-12.135,26.595
		c-0.218,0.478-0.769,0.705-1.259,0.522c-0.492-0.184-0.758-0.716-0.61-1.219l8.245-28.044l-15.794,24.597
		c-0.283,0.441-0.862,0.588-1.32,0.337c-0.461-0.251-0.648-0.816-0.431-1.293l12.152-26.587l-19.135,22.1
		c-0.343,0.396-0.935,0.459-1.355,0.146c-0.42-0.315-0.526-0.9-0.242-1.342l15.813-24.585l-22.084,19.151
		c-0.396,0.344-0.991,0.324-1.362-0.048c-0.371-0.371-0.392-0.966-0.048-1.362l19.15-22.085l-24.584,15.813
		c-0.441,0.283-1.026,0.179-1.342-0.242c-0.314-0.42-0.25-1.012,0.146-1.355l22.099-19.134l-26.585,12.152
		c-0.477,0.215-1.042,0.03-1.293-0.431c-0.252-0.46-0.104-1.037,0.337-1.32L86.723,144l-28.044,8.246
		c-0.503,0.146-1.035-0.118-1.219-0.61c-0.183-0.492,0.044-1.042,0.522-1.259l26.595-12.134l-28.933,4.17
		c-0.522,0.073-1.008-0.264-1.12-0.777c-0.112-0.513,0.192-1.024,0.696-1.172l28.05-8.226l-29.231,0.011
		c-0.525,0-0.96-0.405-0.998-0.929c-0.037-0.523,0.336-0.987,0.855-1.061l28.936-4.15l-28.936-4.15
		c-0.52-0.074-0.893-0.538-0.855-1.061c0.038-0.523,0.473-0.929,0.998-0.929l0,0l29.231,0.011l-28.051-8.227
		c-0.504-0.147-0.808-0.659-0.696-1.172c0.111-0.513,0.598-0.852,1.12-0.777l28.933,4.171l-26.594-12.134
		c-0.478-0.218-0.705-0.768-0.522-1.259c0.184-0.492,0.717-0.756,1.219-0.61l28.044,8.246L62.127,92.424
		c-0.441-0.283-0.589-0.86-0.337-1.321c0.25-0.46,0.816-0.648,1.293-0.43l26.585,12.153L67.57,83.692
		c-0.396-0.343-0.46-0.935-0.146-1.355c0.315-0.42,0.9-0.526,1.342-0.242L93.35,97.907L74.2,75.822
		c-0.344-0.396-0.323-0.991,0.048-1.362c0.372-0.372,0.966-0.391,1.362-0.048l22.084,19.15L81.882,68.977
		c-0.284-0.441-0.179-1.027,0.242-1.341c0.419-0.316,1.012-0.25,1.355,0.146l19.135,22.1L90.462,63.295
		c-0.218-0.477-0.03-1.042,0.431-1.293c0.458-0.251,1.037-0.105,1.32,0.337l15.794,24.597l-8.245-28.044
		c-0.148-0.503,0.118-1.036,0.61-1.219c0.491-0.183,1.041,0.044,1.259,0.522l12.135,26.595l-4.172-28.933
		c-0.074-0.519,0.265-1.008,0.777-1.12c0.515-0.113,1.024,0.192,1.173,0.696l8.225,28.049l-0.011-29.23
		c0-0.525,0.405-0.96,0.929-0.998c0.519-0.036,0.987,0.336,1.062,0.855l4.15,28.935l4.146-28.935c0.075-0.52,0.54-0.891,1.062-0.855
		c0.523,0.038,0.929,0.473,0.929,0.998l-0.011,29.232l8.227-28.051c0.149-0.504,0.661-0.809,1.173-0.696
		c0.513,0.111,0.852,0.601,0.777,1.12l-4.171,28.932l12.132-26.594c0.218-0.478,0.766-0.707,1.26-0.522
		c0.491,0.184,0.758,0.716,0.609,1.219l-8.246,28.045l15.797-24.598c0.284-0.441,0.859-0.588,1.321-0.337
		c0.46,0.251,0.648,0.816,0.43,1.293L149.18,89.881l19.135-22.099c0.344-0.396,0.933-0.461,1.355-0.146
		c0.42,0.314,0.525,0.9,0.241,1.341l-15.813,24.584l22.085-19.15c0.396-0.343,0.992-0.324,1.362,0.048
		c0.371,0.371,0.393,0.966,0.049,1.362l-19.151,22.085l24.587-15.813c0.441-0.284,1.028-0.178,1.342,0.242s0.251,1.012-0.146,1.355
		l-22.098,19.135l26.584-12.153c0.481-0.217,1.043-0.029,1.294,0.43c0.251,0.461,0.104,1.038-0.338,1.321l-24.597,15.794
		l28.044-8.246c0.508-0.146,1.036,0.119,1.219,0.61c0.184,0.492-0.044,1.042-0.521,1.259l-26.594,12.134l28.933-4.171
		c0.515-0.072,1.009,0.264,1.12,0.777s-0.192,1.024-0.696,1.172l-28.051,8.227l29.232-0.011c0.524,0,0.96,0.405,0.997,0.929
		c0.038,0.523-0.336,0.987-0.855,1.061l-28.936,4.15l28.936,4.15c0.52,0.074,0.894,0.538,0.855,1.061
		c-0.037,0.523-0.473,0.929-0.997,0.929l0,0l-29.232-0.011l28.051,8.226c0.504,0.147,0.808,0.659,0.696,1.172
		c-0.111,0.514-0.605,0.853-1.12,0.777l-28.933-4.17l26.594,12.134c0.478,0.218,0.705,0.768,0.521,1.259
		c-0.183,0.491-0.711,0.759-1.219,0.61L165.07,144l24.597,15.794c0.441,0.283,0.589,0.86,0.338,1.32s-0.813,0.649-1.294,0.431
		l-26.584-12.152l22.098,19.134c0.397,0.343,0.461,0.935,0.146,1.355c-0.314,0.419-0.9,0.525-1.342,0.242l-24.587-15.813
		l19.151,22.085c0.344,0.396,0.322,0.991-0.049,1.362c-0.37,0.373-0.967,0.392-1.362,0.048l-22.085-19.151l15.813,24.585
		c0.284,0.441,0.179,1.027-0.241,1.342c-0.423,0.313-1.012,0.249-1.355-0.146l-19.135-22.099l12.153,26.586
		c0.219,0.477,0.03,1.042-0.43,1.293c-0.462,0.252-1.037,0.104-1.321-0.337l-15.797-24.598l8.246,28.045
		c0.148,0.503-0.118,1.036-0.609,1.219c-0.493,0.184-1.042-0.044-1.26-0.522l-12.132-26.594l4.171,28.932
		c0.074,0.519-0.265,1.008-0.777,1.12c-0.512,0.113-1.023-0.192-1.173-0.696l-8.227-28.051l0.011,29.232
		c0,0.525-0.405,0.96-0.929,0.998c-0.522,0.031-0.986-0.336-1.062-0.855l-4.146-28.935l-4.15,28.935
		C121.677,198.606,121.252,198.969,120.759,198.969z M120.771,160.765c0.048,0,0.096,0.003,0.144,0.01
		c0.492,0.071,0.857,0.493,0.857,0.99l-0.009,22.152l3.146-21.929c0.071-0.492,0.493-0.858,0.99-0.858l0,0
		c0.497,0,0.919,0.366,0.99,0.858l3.142,21.918l-0.009-22.142c0-0.498,0.365-0.919,0.857-0.99c0.485-0.067,0.962,0.23,1.103,0.708
		l6.235,21.26l-3.162-21.929c-0.07-0.492,0.231-0.962,0.709-1.102c0.471-0.14,0.985,0.091,1.191,0.544l9.192,20.15l-6.247-21.249
		c-0.141-0.478,0.091-0.985,0.544-1.192c0.451-0.207,0.988-0.05,1.257,0.369l11.972,18.642l-9.211-20.149
		c-0.207-0.452-0.05-0.988,0.368-1.257c0.421-0.271,0.971-0.189,1.297,0.187l14.499,16.745l-11.982-18.629
		c-0.27-0.418-0.19-0.971,0.186-1.297c0.377-0.325,0.934-0.326,1.311,0l16.736,14.513l-14.513-16.736
		c-0.325-0.376-0.325-0.934,0-1.31c0.326-0.375,0.876-0.456,1.297-0.187l18.633,11.984l-16.746-14.5
		c-0.376-0.326-0.456-0.878-0.187-1.296c0.269-0.419,0.805-0.573,1.257-0.369l20.144,9.208l-18.639-11.969
		c-0.419-0.269-0.576-0.804-0.369-1.257c0.206-0.452,0.714-0.684,1.191-0.544l21.253,6.249l-20.153-9.195
		c-0.452-0.207-0.685-0.714-0.545-1.191c0.141-0.478,0.62-0.774,1.103-0.708l21.925,3.16l-21.257-6.233
		c-0.478-0.14-0.779-0.609-0.709-1.102c0.071-0.493,0.493-0.858,0.99-0.858l0,0l22.151,0.008l-21.926-3.145
		c-0.493-0.07-0.858-0.492-0.858-0.99s0.365-0.919,0.858-0.99l21.926-3.145l-22.151,0.008c-0.497,0-0.919-0.365-0.99-0.857
		c-0.07-0.493,0.231-0.962,0.709-1.102l21.258-6.234l-21.926,3.161c-0.482,0.071-0.962-0.23-1.103-0.708
		c-0.14-0.477,0.093-0.985,0.545-1.191l20.153-9.195l-21.253,6.249c-0.478,0.139-0.985-0.091-1.191-0.544
		c-0.207-0.453-0.05-0.988,0.369-1.257l18.637-11.968l-20.142,9.208c-0.457,0.207-0.989,0.049-1.257-0.369
		c-0.27-0.418-0.189-0.971,0.187-1.296l16.747-14.502l-18.634,11.985c-0.422,0.269-0.972,0.188-1.297-0.187
		c-0.325-0.376-0.325-0.934,0-1.31l14.514-16.738L150.14,99.641c-0.377,0.326-0.934,0.326-1.311,0
		c-0.376-0.326-0.455-0.878-0.186-1.297l11.981-18.626l-14.498,16.743c-0.325,0.375-0.875,0.457-1.297,0.187
		c-0.418-0.269-0.575-0.805-0.368-1.257l9.211-20.149L141.7,93.884c-0.269,0.419-0.806,0.575-1.257,0.369
		c-0.453-0.207-0.685-0.714-0.544-1.192l6.247-21.249l-9.192,20.15c-0.206,0.453-0.721,0.683-1.191,0.544
		c-0.478-0.14-0.779-0.61-0.709-1.102l3.162-21.929l-6.235,21.26c-0.141,0.479-0.617,0.78-1.103,0.708
		c-0.492-0.071-0.857-0.493-0.857-0.99l0.009-22.142l-3.142,21.918c-0.071,0.492-0.493,0.858-0.99,0.858s-0.919-0.366-0.99-0.858
		L121.762,68.3l0.009,22.152c0,0.498-0.365,0.919-0.857,0.99c-0.484,0.072-0.961-0.23-1.103-0.708l-6.232-21.254l3.161,21.923
		c0.07,0.492-0.231,0.962-0.708,1.102c-0.476,0.139-0.985-0.092-1.192-0.544l-9.196-20.155l6.249,21.254
		c0.141,0.478-0.091,0.985-0.544,1.192c-0.454,0.207-0.988,0.048-1.257-0.369l-11.969-18.64l9.209,20.148
		c0.207,0.452,0.049,0.988-0.369,1.257c-0.418,0.269-0.971,0.189-1.296-0.187L91.168,79.716l11.981,18.629
		c0.27,0.418,0.19,0.971-0.186,1.297c-0.376,0.325-0.934,0.326-1.31,0L84.917,85.129l14.513,16.736c0.326,0.376,0.326,0.934,0,1.31
		s-0.879,0.455-1.297,0.187L79.504,91.38l16.746,14.5c0.376,0.326,0.456,0.878,0.187,1.296c-0.27,0.418-0.805,0.575-1.257,0.369
		l-20.148-9.21l18.64,11.97c0.418,0.269,0.576,0.804,0.369,1.257c-0.207,0.452-0.712,0.684-1.192,0.544l-21.25-6.249l20.152,9.195
		c0.453,0.207,0.685,0.714,0.544,1.191s-0.615,0.779-1.102,0.708l-21.926-3.161l21.258,6.234c0.478,0.14,0.779,0.609,0.708,1.102
		c-0.071,0.492-0.493,0.857-0.99,0.857l0,0l-22.15-0.008l21.926,3.145c0.492,0.07,0.858,0.492,0.858,0.99s-0.366,0.919-0.858,0.99
		l-21.926,3.145l22.15-0.008c0.498,0,0.919,0.365,0.99,0.858c0.071,0.492-0.231,0.962-0.708,1.102l-21.257,6.233l21.926-3.16
		c0.487-0.066,0.962,0.23,1.102,0.708s-0.092,0.985-0.544,1.191L71.6,146.364l21.25-6.249c0.48-0.139,0.985,0.092,1.192,0.544
		c0.207,0.453,0.049,0.988-0.369,1.257l-18.642,11.971l20.15-9.21c0.452-0.206,0.987-0.049,1.257,0.369
		c0.269,0.418,0.189,0.971-0.187,1.296L79.507,160.84l18.627-11.981c0.418-0.269,0.972-0.189,1.297,0.187
		c0.326,0.376,0.326,0.934,0,1.31L84.92,167.091l16.734-14.512c0.376-0.326,0.934-0.326,1.31,0s0.456,0.878,0.186,1.297
		l-11.982,18.63l14.5-16.746c0.324-0.375,0.877-0.456,1.296-0.187c0.418,0.269,0.576,0.805,0.369,1.257l-9.209,20.148l11.969-18.641
		c0.269-0.417,0.803-0.577,1.257-0.369c0.453,0.207,0.685,0.714,0.544,1.192l-6.249,21.254l9.196-20.155
		c0.207-0.453,0.717-0.685,1.192-0.544c0.477,0.14,0.778,0.61,0.708,1.102l-3.161,21.923l6.232-21.254
		C119.939,161.052,120.333,160.765,120.771,160.765z"/>
	<g>
		<circle style="fill:#F2E5A2;" cx="125.897" cy="126.11" r="38.187"/>
		<path d="M125.899,165.297c-21.608,0-39.188-17.58-39.188-39.188c0-21.607,17.58-39.187,39.188-39.187
			c21.607,0,39.186,17.579,39.186,39.187C165.084,147.717,147.506,165.297,125.899,165.297z M125.899,88.923
			c-20.505,0-37.188,16.682-37.188,37.187s16.683,37.188,37.188,37.188c20.504,0,37.186-16.682,37.186-37.188
			C163.084,105.605,146.403,88.923,125.899,88.923z"/>
	</g>
	<g>
		<g>
			<circle style="fill:#F2E5A2;" cx="125.897" cy="126.11" r="33.213"/>
			<path d="M125.899,160.323c-18.866,0-34.214-15.348-34.214-34.214c0-18.865,15.349-34.213,34.214-34.213
				c18.864,0,34.211,15.348,34.211,34.213C160.11,144.975,144.763,160.323,125.899,160.323z M125.899,93.897
				c-17.763,0-32.214,14.451-32.214,32.213c0,17.763,14.452,32.214,32.214,32.214c17.761,0,32.211-14.451,32.211-32.214
				S143.659,93.897,125.899,93.897z"/>
		</g>
		<g>
			<g>
				<g>
					<path style="fill:#F2E5A2;" d="M110.836,116.782c-3.453,0-6.464,1.877-8.077,4.664c1.612,2.787,4.624,4.663,8.077,4.663
						c3.451,0,6.463-1.876,8.076-4.663C117.299,118.659,114.287,116.782,110.836,116.782z"/>
					<path d="M110.836,127.11c-3.674,0-7.1-1.978-8.942-5.162l-0.29-0.501l0.29-0.501c1.842-3.185,5.269-5.163,8.942-5.163
						c3.672,0,7.099,1.979,8.941,5.163l0.29,0.501l-0.29,0.501C117.935,125.132,114.508,127.11,110.836,127.11z M103.939,121.446
						c1.541,2.273,4.132,3.663,6.897,3.663c2.764,0,5.354-1.39,6.896-3.663c-1.542-2.274-4.134-3.664-6.896-3.664
						C108.071,117.782,105.481,119.173,103.939,121.446z"/>
				</g>
				<path d="M122.044,121.083c-0.346,0-0.681-0.179-0.866-0.499c-2.132-3.684-6.095-5.973-10.342-5.973
					c-4.249,0-8.212,2.289-10.344,5.973c-0.277,0.478-0.888,0.641-1.367,0.365c-0.478-0.277-0.641-0.889-0.365-1.367
					c2.488-4.3,7.115-6.971,12.075-6.971c4.959,0,9.585,2.671,12.072,6.971c0.277,0.478,0.113,1.09-0.364,1.367
					C122.386,121.04,122.214,121.083,122.044,121.083z"/>
				<g>
					<circle style="fill:#F2E5A2;" cx="110.835" cy="121.447" r="2.864"/>
					<path d="M110.836,125.311c-2.131,0-3.865-1.733-3.865-3.864s1.734-3.864,3.865-3.864c2.13,0,3.863,1.733,3.863,3.864
						S112.966,125.311,110.836,125.311z M110.836,119.582c-1.028,0-1.865,0.836-1.865,1.864s0.837,1.864,1.865,1.864
						c1.027,0,1.863-0.836,1.863-1.864S111.863,119.582,110.836,119.582z"/>
				</g>
			</g>
			<g>
				<g>
					<path style="fill:#F2E5A2;" d="M140.959,116.782c-3.451,0-6.463,1.877-8.076,4.664c1.613,2.787,4.625,4.663,8.076,4.663
						s6.465-1.876,8.076-4.663C147.424,118.659,144.41,116.782,140.959,116.782z"/>
					<path d="M140.959,127.11c-3.672,0-7.099-1.978-8.941-5.162l-0.29-0.501l0.29-0.501c1.843-3.185,5.27-5.163,8.941-5.163
						c3.674,0,7.101,1.979,8.942,5.164l0.289,0.5l-0.289,0.5C148.06,125.132,144.634,127.11,140.959,127.11z M134.063,121.446
						c1.542,2.273,4.133,3.663,6.896,3.663c2.766,0,5.356-1.39,6.896-3.663c-1.54-2.274-4.132-3.664-6.896-3.664
						C138.196,117.782,135.605,119.173,134.063,121.446z"/>
				</g>
				<path d="M152.167,121.083c-0.346,0-0.681-0.179-0.866-0.499c-2.132-3.684-6.095-5.973-10.342-5.973s-8.21,2.289-10.342,5.973
					c-0.276,0.477-0.887,0.641-1.366,0.365c-0.478-0.277-0.642-0.889-0.364-1.367c2.487-4.3,7.113-6.971,12.072-6.971
					s9.585,2.671,12.072,6.971c0.277,0.478,0.113,1.09-0.364,1.367C152.509,121.04,152.337,121.083,152.167,121.083z"/>
				<g>
					<circle style="fill:#F2E5A2;" cx="140.96" cy="121.447" r="2.864"/>
					<path d="M140.959,125.311c-2.13,0-3.863-1.733-3.863-3.864s1.733-3.864,3.863-3.864c2.131,0,3.865,1.733,3.865,3.864
						S143.09,125.311,140.959,125.311z M140.959,119.582c-1.027,0-1.863,0.836-1.863,1.864s0.836,1.864,1.863,1.864
						c1.028,0,1.865-0.836,1.865-1.864S141.987,119.582,140.959,119.582z"/>
				</g>
			</g>
		</g>
		<g>
			<path style="fill:#F2E5A2;" d="M125.899,141.236c-6.277,0-11.754-1.345-14.685,1.748c2.932,3.093,8.408,5.176,14.685,5.176
				c6.275,0,11.75-2.083,14.684-5.176C137.649,139.891,132.174,141.236,125.899,141.236z"/>
			<path d="M125.899,149.159c-6.393,0-12.154-2.052-15.411-5.488c-0.366-0.386-0.366-0.99,0-1.376
				c1.964-2.072,4.816-2.351,7.347-2.351c1.167,0,2.394,0.066,3.691,0.136c2.818,0.152,5.924,0.152,8.744,0
				c1.298-0.07,2.523-0.136,3.69-0.136c2.531,0,5.383,0.279,7.348,2.351c0.366,0.386,0.366,0.99,0,1.376
				C138.048,147.108,132.288,149.159,125.899,149.159z M112.703,143.024c2.977,2.57,7.91,4.135,13.195,4.135
				c5.282,0,10.215-1.565,13.192-4.135c-1.13-0.758-2.708-1.08-5.131-1.08c-1.112,0-2.313,0.065-3.582,0.133
				c-1.437,0.078-2.921,0.158-4.479,0.158s-3.044-0.08-4.48-0.158c-1.271-0.068-2.471-0.133-3.584-0.133
				C115.411,141.945,113.833,142.266,112.703,143.024z"/>
		</g>
		<path d="M125.899,145.552c-5.332,0-10.439-0.614-14.769-1.774c-0.349-0.093-0.619-0.367-0.709-0.716
			c-0.091-0.349,0.014-0.719,0.273-0.97c1.96-1.891,4.714-2.146,7.149-2.146c1.166,0,2.391,0.066,3.688,0.136
			c2.815,0.151,5.916,0.151,8.731,0c1.296-0.07,2.521-0.135,3.686-0.135c2.436,0,5.19,0.255,7.152,2.145
			c0.259,0.25,0.364,0.621,0.274,0.97c-0.091,0.349-0.361,0.623-0.71,0.716C136.336,144.938,131.23,145.552,125.899,145.552z
			 M114.023,142.408c3.611,0.751,7.667,1.144,11.876,1.144c4.208,0,8.262-0.393,11.873-1.143c-0.985-0.317-2.227-0.462-3.823-0.462
			c-1.112,0-2.31,0.064-3.578,0.132c-1.434,0.077-2.916,0.157-4.472,0.157c-1.557,0-3.04-0.08-4.475-0.157
			c-1.27-0.068-2.468-0.133-3.58-0.133C116.248,141.946,115.008,142.091,114.023,142.408z"/>
		<path d="M125.899,135.125h-6.986c-0.419,0-0.794-0.262-0.938-0.655s-0.028-0.835,0.291-1.107l6.986-5.935
			c0.422-0.356,1.052-0.307,1.409,0.115c0.358,0.421,0.307,1.052-0.114,1.41l-4.912,4.172h4.265c0.553,0,1,0.448,1,1
			S126.451,135.125,125.899,135.125z"/>
	</g>
	<path d="M208.785,206.06h-11v-2h9v-2.349h2V206.06z M187.785,206.06h-10v-2h10V206.06z M167.785,206.06h-10v-2h10V206.06z
		 M147.785,206.06h-10v-2h10V206.06z M127.785,206.06h-10v-2h10V206.06z M107.785,206.06h-10v-2h10V206.06z M87.785,206.06h-10v-2
		h10V206.06z M67.785,206.06h-10v-2h10V206.06z M47.785,206.06H43.01v-7.225h2v5.225h2.775V206.06z M208.785,191.711h-2v-10h2
		V191.711z M45.01,188.835h-2v-10h2V188.835z M208.785,171.711h-2v-10h2V171.711z M45.01,168.835h-2v-10h2V168.835z
		 M208.785,151.711h-2v-10h2V151.711z M45.01,148.835h-2v-10h2V148.835z M208.785,131.711h-2v-10h2V131.711z M45.01,128.835h-2v-10
		h2V128.835z M208.785,111.711h-2v-10h2V111.711z M45.01,108.835h-2v-10h2V108.835z M208.785,91.711h-2v-10h2V91.711z M45.01,88.835
		h-2v-10h2V88.835z M208.785,71.711h-2v-10h2V71.711z M45.01,68.835h-2v-10h2V68.835z M208.785,51.711h-2V48.16h-4.449v-2h6.449
		V51.711z M45.01,48.835h-2V46.16h9.326v2H45.01V48.835z M192.336,48.16h-10v-2h10V48.16z M172.336,48.16h-10v-2h10V48.16z
		 M152.336,48.16h-10v-2h10V48.16z M132.336,48.16h-10v-2h10V48.16z M112.336,48.16h-10v-2h10V48.16z M92.336,48.16h-10v-2h10V48.16
		z M72.336,48.16h-10v-2h10V48.16z"/>
	<path d="M127.975,241.252l-7.778-7.778l1.414-1.414l6.364,6.364l1.657-1.657l1.414,1.414L127.975,241.252z M138.117,231.11
		l-1.414-1.414l7.07-7.071l1.414,1.414L138.117,231.11z M113.125,226.403l-7.071-7.071l1.414-1.414l7.071,7.071L113.125,226.403z
		 M152.259,216.967l-1.414-1.414l7.071-7.071l1.414,1.414L152.259,216.967z M98.984,212.261l-7.071-7.071l1.414-1.414l7.071,7.071
		L98.984,212.261z M166.402,202.825l-1.414-1.414l7.07-7.071l1.414,1.414L166.402,202.825z M84.841,198.119l-7.071-7.071
		l1.414-1.414l7.071,7.071L84.841,198.119z M180.543,188.683l-1.414-1.414l7.071-7.071l1.414,1.414L180.543,188.683z
		 M70.699,183.976l-7.071-7.071l1.414-1.414l7.071,7.071L70.699,183.976z M194.686,174.541l-1.414-1.414l7.07-7.071l1.414,1.414
		L194.686,174.541z M56.557,169.834l-7.071-7.071l1.414-1.414l7.071,7.071L56.557,169.834z M208.827,160.399l-1.414-1.414
		l7.071-7.071l1.414,1.414L208.827,160.399z M42.415,155.692l-7.071-7.071l1.414-1.414l7.071,7.071L42.415,155.692z M222.97,146.257
		l-1.414-1.414l7.07-7.071l1.414,1.414L222.97,146.257z M28.273,141.55l-7.071-7.071l1.414-1.414l7.071,7.071L28.273,141.55z
		 M237.111,132.114l-1.414-1.414l2.514-2.514l-3.144-3.144l1.414-1.414l4.558,4.558L237.111,132.114z M14.131,127.408l-3.375-3.375
		l5.11-5.11l1.414,1.414l-3.696,3.696l1.961,1.961L14.131,127.408z M227.996,117.972l-7.07-7.071l1.414-1.414l7.07,7.071
		L227.996,117.972z M24.35,113.266l-1.414-1.414l7.071-7.071l1.414,1.414L24.35,113.266z M213.855,103.83l-7.071-7.071l1.414-1.414
		l7.071,7.071L213.855,103.83z M38.492,99.123l-1.414-1.414l7.071-7.071l1.414,1.414L38.492,99.123z M199.712,89.688l-7.07-7.071
		l1.414-1.414l7.07,7.071L199.712,89.688z M52.634,84.981l-1.414-1.414l7.071-7.071l1.414,1.414L52.634,84.981z M185.57,75.546
		l-7.071-7.071l1.414-1.414l7.071,7.071L185.57,75.546z M66.777,70.839l-1.414-1.414l7.071-7.071l1.414,1.414L66.777,70.839z
		 M171.428,61.404l-7.07-7.071l1.414-1.414l7.07,7.071L171.428,61.404z M80.919,56.697l-1.414-1.414l7.071-7.071l1.414,1.414
		L80.919,56.697z M157.286,47.261l-7.071-7.071l1.414-1.414l7.071,7.071L157.286,47.261z M95.061,42.555l-1.414-1.414l7.071-7.071
		l1.414,1.414L95.061,42.555z M143.144,33.119l-7.07-7.071l1.414-1.414l7.07,7.071L143.144,33.119z M109.203,28.413l-1.414-1.414
		l7.07-7.071l1.414,1.414L109.203,28.413z M129.002,18.977l-5.182-5.182l-0.476,0.476l-1.414-1.414l1.89-1.89l6.596,6.596
		L129.002,18.977z"/>
	<g>
		<polygon style="fill:#F2E5A2;" points="44.01,36.537 47.462,43.531 55.18,44.653 49.595,50.096 50.913,57.782 44.01,54.153 
			37.108,57.782 38.426,50.096 32.842,44.653 40.559,43.531 		"/>
		<path d="M50.913,58.782c-0.159,0-0.319-0.038-0.465-0.115l-6.438-3.385l-6.437,3.385c-0.335,0.177-0.745,0.147-1.053-0.076
			c-0.308-0.224-0.462-0.603-0.398-0.978l1.229-7.168l-5.208-5.076c-0.272-0.266-0.371-0.663-0.253-1.025
			c0.118-0.362,0.431-0.626,0.807-0.681l7.197-1.046l3.218-6.521c0.336-0.682,1.456-0.683,1.793,0l3.219,6.521l7.198,1.046
			c0.376,0.055,0.689,0.319,0.807,0.681s0.02,0.76-0.253,1.025l-5.208,5.076l1.229,7.168c0.064,0.375-0.09,0.754-0.398,0.978
			C51.327,58.718,51.12,58.782,50.913,58.782z M44.01,53.153c0.16,0,0.32,0.038,0.465,0.115l5.109,2.687l-0.976-5.689
			c-0.055-0.324,0.052-0.655,0.288-0.885l4.134-4.029l-5.713-0.831c-0.326-0.047-0.607-0.252-0.752-0.547l-2.555-5.176l-2.554,5.176
			c-0.146,0.295-0.427,0.5-0.753,0.547l-5.712,0.831l4.134,4.029c0.235,0.23,0.343,0.561,0.288,0.885l-0.976,5.689l5.109-2.687
			C43.691,53.191,43.851,53.153,44.01,53.153z"/>
	</g>
	<g>
		<polygon style="fill:#F2E5A2;" points="207.785,36.537 211.236,43.531 218.953,44.653 213.369,50.096 214.688,57.782 
			207.785,54.153 200.881,57.782 202.201,50.096 196.615,44.653 204.332,43.531 		"/>
		<path d="M200.881,58.782c-0.207,0-0.414-0.064-0.588-0.191c-0.308-0.224-0.462-0.603-0.397-0.979l1.231-7.168l-5.21-5.076
			c-0.272-0.266-0.37-0.663-0.253-1.025c0.117-0.362,0.431-0.626,0.808-0.681l7.196-1.046l3.221-6.522
			c0.168-0.341,0.516-0.557,0.896-0.557l0,0c0.381,0,0.729,0.216,0.896,0.558l3.219,6.521l7.196,1.046
			c0.377,0.055,0.689,0.319,0.808,0.681c0.117,0.362,0.02,0.759-0.253,1.025l-5.208,5.076l1.229,7.168
			c0.064,0.375-0.09,0.754-0.397,0.978c-0.31,0.224-0.716,0.253-1.054,0.076l-6.437-3.385l-6.438,3.385
			C201.2,58.744,201.04,58.782,200.881,58.782z M207.785,53.153c0.16,0,0.319,0.038,0.466,0.115l5.108,2.687l-0.976-5.689
			c-0.056-0.324,0.052-0.655,0.287-0.885l4.134-4.029l-5.712-0.831c-0.326-0.047-0.607-0.252-0.753-0.547l-2.555-5.176l-2.557,5.177
			c-0.146,0.295-0.427,0.5-0.753,0.547l-5.711,0.831l4.135,4.029c0.235,0.23,0.343,0.561,0.287,0.886l-0.977,5.689l5.109-2.687
			C207.466,53.191,207.625,53.153,207.785,53.153z"/>
	</g>
	<g>
		<polygon style="fill:#F2E5A2;" points="123.354,1.286 126.805,8.281 134.522,9.402 128.936,14.845 130.256,22.531 123.354,18.902 
			116.449,22.531 117.768,14.845 112.186,9.402 119.902,8.281 		"/>
		<path d="M130.256,23.531c-0.159,0-0.319-0.038-0.466-0.115l-6.437-3.385l-6.438,3.385c-0.336,0.177-0.745,0.147-1.054-0.076
			c-0.308-0.224-0.462-0.603-0.397-0.978l1.229-7.168l-5.206-5.077c-0.272-0.266-0.37-0.663-0.253-1.025
			c0.118-0.362,0.431-0.626,0.808-0.681l7.196-1.045l3.219-6.522c0.336-0.683,1.457-0.683,1.793,0l3.219,6.522l7.196,1.045
			c0.377,0.055,0.689,0.319,0.808,0.681c0.117,0.362,0.02,0.76-0.253,1.025l-5.21,5.076l1.231,7.168
			c0.064,0.375-0.09,0.754-0.397,0.979C130.67,23.467,130.463,23.531,130.256,23.531z M114.334,10.1l4.132,4.029
			c0.235,0.229,0.343,0.561,0.287,0.885l-0.976,5.689l5.11-2.687c0.293-0.153,0.639-0.153,0.932,0l5.107,2.687l-0.977-5.688
			c-0.056-0.325,0.052-0.656,0.287-0.886l4.135-4.029l-5.711-0.83c-0.326-0.047-0.607-0.252-0.753-0.547l-2.555-5.177l-2.555,5.177
			c-0.146,0.295-0.427,0.5-0.753,0.547L114.334,10.1z"/>
	</g>
	<g>
		<polygon style="fill:#F2E5A2;" points="126.928,229.216 130.375,236.209 138.096,237.331 132.508,242.775 133.828,250.461 
			126.928,246.831 120.024,250.461 121.342,242.775 115.758,237.331 123.477,236.209 		"/>
		<path d="M120.024,251.461c-0.207,0-0.413-0.064-0.588-0.191c-0.308-0.224-0.462-0.603-0.397-0.978l1.229-7.168l-5.208-5.076
			c-0.272-0.266-0.37-0.663-0.253-1.025c0.118-0.362,0.431-0.626,0.808-0.681l7.198-1.046l3.219-6.521
			c0.168-0.341,0.516-0.558,0.896-0.558l0,0c0.381,0,0.729,0.216,0.896,0.558l3.215,6.521l7.2,1.046
			c0.377,0.055,0.69,0.319,0.808,0.681c0.117,0.362,0.02,0.76-0.253,1.025l-5.212,5.076l1.231,7.168
			c0.064,0.375-0.09,0.755-0.397,0.979c-0.309,0.224-0.716,0.253-1.054,0.076l-6.435-3.385l-6.438,3.385
			C120.343,251.423,120.183,251.461,120.024,251.461z M117.906,238.029l4.134,4.029c0.235,0.23,0.343,0.561,0.287,0.885
			l-0.976,5.689l5.11-2.687c0.293-0.153,0.641-0.153,0.932,0l5.105,2.686l-0.977-5.688c-0.056-0.325,0.052-0.656,0.287-0.886
			l4.137-4.029l-5.715-0.831c-0.326-0.047-0.607-0.252-0.753-0.547l-2.552-5.175l-2.554,5.175c-0.146,0.295-0.427,0.5-0.753,0.547
			L117.906,238.029z"/>
	</g>
	<g>
		<polygon style="fill:#F2E5A2;" points="239.625,117.569 243.074,124.562 250.793,125.684 245.205,131.127 246.527,138.814 
			239.625,135.184 232.719,138.814 234.037,131.127 228.455,125.684 236.172,124.562 		"/>
		<path d="M246.528,139.814c-0.159,0-0.319-0.038-0.466-0.115l-6.437-3.385l-6.441,3.385c-0.334,0.177-0.745,0.147-1.053-0.076
			s-0.462-0.603-0.397-0.978l1.229-7.168l-5.206-5.077c-0.272-0.266-0.37-0.663-0.253-1.025c0.118-0.362,0.431-0.626,0.808-0.681
			l7.196-1.046l3.221-6.522c0.168-0.341,0.516-0.557,0.896-0.557l0,0c0.381,0,0.729,0.216,0.896,0.558l3.217,6.521l7.198,1.046
			c0.377,0.055,0.69,0.319,0.808,0.681c0.117,0.362,0.02,0.759-0.253,1.025l-5.211,5.076l1.232,7.168
			c0.064,0.375-0.09,0.754-0.397,0.979C246.942,139.749,246.735,139.814,246.528,139.814z M230.604,126.382l4.132,4.029
			c0.235,0.229,0.343,0.561,0.287,0.885l-0.976,5.69l5.113-2.688c0.291-0.153,0.638-0.153,0.931,0l5.107,2.686l-0.979-5.688
			c-0.056-0.325,0.052-0.656,0.287-0.886l4.137-4.029l-5.713-0.831c-0.326-0.047-0.607-0.252-0.753-0.547l-2.554-5.176l-2.556,5.176
			c-0.146,0.295-0.427,0.5-0.753,0.547L230.604,126.382z"/>
	</g>
	<g>
		<polygon style="fill:#F2E5A2;" points="12.171,116.639 15.619,123.632 23.339,124.753 17.752,130.197 19.072,137.883 
			12.171,134.253 5.265,137.883 6.584,130.197 1,124.753 8.717,123.632 		"/>
		<path d="M5.265,138.883c-0.208,0-0.414-0.064-0.588-0.191c-0.308-0.224-0.462-0.603-0.398-0.978l1.23-7.168l-5.207-5.077
			c-0.272-0.266-0.371-0.663-0.253-1.025s0.431-0.626,0.808-0.681l7.197-1.045l3.221-6.522c0.168-0.341,0.516-0.557,0.896-0.557l0,0
			c0.38,0,0.728,0.216,0.896,0.558l3.216,6.521l7.199,1.045c0.377,0.055,0.69,0.319,0.808,0.681s0.02,0.76-0.253,1.025l-5.21,5.076
			l1.231,7.168c0.064,0.375-0.089,0.755-0.397,0.979c-0.308,0.224-0.716,0.253-1.053,0.076l-6.436-3.385l-6.44,3.385
			C5.584,138.845,5.424,138.883,5.265,138.883z M3.149,125.451l4.133,4.029c0.235,0.229,0.343,0.561,0.288,0.885l-0.977,5.689
			l5.112-2.687c0.291-0.153,0.64-0.153,0.931,0l5.107,2.687l-0.977-5.688c-0.056-0.325,0.052-0.656,0.288-0.886l4.135-4.029
			l-5.713-0.83c-0.326-0.047-0.608-0.252-0.753-0.547l-2.552-5.176l-2.556,5.176c-0.146,0.295-0.427,0.5-0.753,0.547L3.149,125.451z
			"/>
	</g>
	<g>
		<polygon style="fill:#F2E5A2;" points="207.785,194.437 211.235,201.431 218.953,202.552 213.367,207.996 214.686,215.682 
			207.785,212.053 200.881,215.682 202.199,207.996 196.615,202.552 204.332,201.431 		"/>
		<path d="M200.881,216.682c-0.207,0-0.414-0.064-0.588-0.191c-0.308-0.224-0.462-0.603-0.397-0.978l1.229-7.167l-5.208-5.078
			c-0.272-0.266-0.37-0.663-0.253-1.025c0.118-0.362,0.431-0.626,0.808-0.681l7.196-1.045l3.221-6.523
			c0.168-0.341,0.516-0.557,0.896-0.557l0,0c0.381,0,0.729,0.216,0.896,0.558l3.217,6.522l7.198,1.045
			c0.377,0.055,0.689,0.319,0.808,0.681c0.117,0.362,0.02,0.759-0.253,1.025l-5.21,5.077l1.229,7.167
			c0.064,0.375-0.09,0.754-0.397,0.978c-0.309,0.224-0.717,0.253-1.054,0.076l-6.435-3.384l-6.439,3.384
			C201.2,216.644,201.04,216.682,200.881,216.682z M198.764,203.25l4.134,4.03c0.235,0.229,0.343,0.561,0.287,0.885l-0.976,5.689
			l5.111-2.687c0.291-0.153,0.638-0.153,0.931,0l5.106,2.686l-0.976-5.688c-0.056-0.324,0.052-0.655,0.287-0.885l4.135-4.03
			l-5.713-0.83c-0.326-0.047-0.607-0.252-0.753-0.547l-2.554-5.177l-2.556,5.177c-0.146,0.295-0.427,0.5-0.753,0.547L198.764,203.25
			z"/>
	</g>
	<g>
		<polygon style="fill:#F2E5A2;" points="44.01,194.437 47.462,201.431 55.179,202.552 49.595,207.996 50.914,215.682 
			44.01,212.053 37.108,215.682 38.426,207.996 32.842,202.552 40.559,201.431 		"/>
		<path d="M37.108,216.682c-0.207,0-0.414-0.064-0.588-0.191c-0.308-0.224-0.462-0.603-0.397-0.978l1.229-7.167l-5.208-5.078
			c-0.272-0.266-0.371-0.663-0.253-1.025c0.118-0.362,0.431-0.626,0.808-0.681l7.196-1.045l3.218-6.522
			c0.337-0.683,1.457-0.683,1.794,0l3.219,6.522l7.197,1.045c0.377,0.055,0.69,0.319,0.808,0.681s0.02,0.759-0.253,1.025
			l-5.208,5.078l1.229,7.167c0.064,0.375-0.089,0.754-0.397,0.978s-0.716,0.253-1.053,0.076l-6.438-3.384l-6.438,3.384
			C37.426,216.644,37.267,216.682,37.108,216.682z M44.01,211.053c0.16,0,0.32,0.038,0.465,0.115l5.11,2.686l-0.976-5.688
			c-0.056-0.324,0.052-0.655,0.287-0.885l4.134-4.03l-5.712-0.83c-0.326-0.047-0.607-0.252-0.753-0.547l-2.555-5.177l-2.554,5.177
			c-0.146,0.295-0.427,0.5-0.753,0.547l-5.711,0.83l4.133,4.03c0.235,0.229,0.343,0.561,0.287,0.885l-0.976,5.688l5.109-2.686
			C43.691,211.091,43.851,211.053,44.01,211.053z"/>
	</g>
</g>
<g>
</g>
<g>
</g>
<g>
</g>
<g>
</g>
<g>
</g>
<g>
</g>
<g>
</g>
<g>
</g>
<g>
</g>
<g>
</g>
<g>
</g>
<g>
</g>
<g>
</g>
<g>
</g>
<g>
</g>
</svg>
